<?xml version="1.0" encoding="UTF-8" standalone="no"?>
<!-- Generator: Adobe Illustrator 21.0.0, SVG Export Plug-In . SVG Version: 6.00 Build 0)  -->

<svg
   xmlns:dc="http://purl.org/dc/elements/1.1/"
   xmlns:cc="http://creativecommons.org/ns#"
   xmlns:rdf="http://www.w3.org/1999/02/22-rdf-syntax-ns#"
   xmlns:svg="http://www.w3.org/2000/svg"
   xmlns="http://www.w3.org/2000/svg"
   xmlns:xlink="http://www.w3.org/1999/xlink"
   xmlns:sodipodi="http://sodipodi.sourceforge.net/DTD/sodipodi-0.dtd"
   xmlns:inkscape="http://www.inkscape.org/namespaces/inkscape"
   version="1.1"
   id="Réteg_1"
   x="0px"
   y="0px"
   width="114"
   height="53"
   viewBox="0 0 114 53"
   xml:space="preserve"
   sodipodi:docname="logo_kifu_gomb.svg"
   inkscape:version="0.92.3 (2405546, 2018-03-11)"><metadata
   id="metadata964"><rdf:RDF><cc:Work
       rdf:about=""><dc:format>image/svg+xml</dc:format><dc:type
         rdf:resource="http://purl.org/dc/dcmitype/StillImage" /><dc:title></dc:title></cc:Work></rdf:RDF></metadata><defs
   id="defs962" /><sodipodi:namedview
   pagecolor="#ffffff"
   bordercolor="#666666"
   borderopacity="1"
   objecttolerance="10"
   gridtolerance="10"
   guidetolerance="10"
   inkscape:pageopacity="0"
   inkscape:pageshadow="2"
   inkscape:window-width="1920"
   inkscape:window-height="1020"
   id="namedview960"
   showgrid="false"
   inkscape:zoom="11.471572"
   inkscape:cx="57.764889"
   inkscape:cy="20.014262"
   inkscape:window-x="0"
   inkscape:window-y="31"
   inkscape:window-maximized="1"
   inkscape:current-layer="layer1" />
<style
   type="text/css"
   id="style507">
	.st0{display:none;}
	.st1{fill:#FFFFFF;}
	.st2{clip-path:url(#SVGID_2_);fill:#FFFFFF;}
	.st3{clip-path:url(#SVGID_4_);fill:#FFFFFF;}
	.st4{clip-path:url(#SVGID_6_);fill:#FFFFFF;}
	.st5{clip-path:url(#SVGID_8_);fill:#FFFFFF;}
	.st6{clip-path:url(#SVGID_10_);fill:#FFFFFF;}
	.st7{clip-path:url(#SVGID_12_);fill:#FFFFFF;}
	.st8{clip-path:url(#SVGID_14_);fill:#FFFFFF;}
	.st9{clip-path:url(#SVGID_16_);fill:#FFFFFF;}
	.st10{clip-path:url(#SVGID_18_);fill:#FFFFFF;}
	.st11{clip-path:url(#SVGID_20_);fill:#FFFFFF;}
	.st12{clip-path:url(#SVGID_22_);fill:#FFFFFF;}
	.st13{clip-path:url(#SVGID_24_);fill:#FFFFFF;}
	.st14{clip-path:url(#SVGID_26_);fill:#FFFFFF;}
	.st15{clip-path:url(#SVGID_28_);fill:#FFFFFF;}
	.st16{clip-path:url(#SVGID_28_);fill:none;stroke:#FFFFFF;stroke-width:0.106;stroke-miterlimit:10;}
	.st17{clip-path:url(#SVGID_28_);fill:none;stroke:#FFFFFF;stroke-width:0.317;stroke-miterlimit:10;}
	.st18{clip-path:url(#SVGID_28_);fill:none;stroke:#FFFFFF;stroke-width:0.423;stroke-miterlimit:10;}
	.st19{clip-path:url(#SVGID_28_);fill:none;stroke:#FFFFFF;stroke-width:0.431;stroke-miterlimit:10;}
	.st20{clip-path:url(#SVGID_28_);fill:none;stroke:#FFFFFF;stroke-width:0.427;stroke-miterlimit:10;}
	.st21{clip-path:url(#SVGID_28_);fill:none;stroke:#FFFFFF;stroke-width:0.211;stroke-miterlimit:10;}
	.st22{clip-path:url(#SVGID_30_);fill:#FFFFFF;}
	.st23{clip-path:url(#SVGID_32_);fill:#FFFFFF;}
	.st24{clip-path:url(#SVGID_34_);fill:#FFFFFF;}
	.st25{clip-path:url(#SVGID_36_);fill:#FFFFFF;}
	.st26{clip-path:url(#SVGID_38_);fill:#FFFFFF;}
	.st27{clip-path:url(#SVGID_40_);fill:#FFFFFF;}
	.st28{clip-path:url(#SVGID_42_);fill:#FFFFFF;}
	.st29{clip-path:url(#SVGID_44_);fill:#FFFFFF;}
	.st30{clip-path:url(#SVGID_46_);fill:#FFFFFF;}
	.st31{clip-path:url(#SVGID_48_);fill:#FFFFFF;}
	.st32{clip-path:url(#SVGID_50_);fill:#FFFFFF;}
	.st33{clip-path:url(#SVGID_52_);fill:#FFFFFF;}
	.st34{clip-path:url(#SVGID_54_);fill:#FFFFFF;}
</style>
<rect
   x="-0.40000001"
   y="17.699997"
   class="st0"
   width="60.799999"
   height="35"
   id="rect509"
   style="display:none" />





































































<g
   inkscape:groupmode="layer"
   id="layer1"
   inkscape:label="Layer 1"
   style="display:inline"
   transform="translate(0,18.200001)"><rect
     style="fill:#313131;fill-opacity:1;stroke-width:1.65487671"
     id="rect966"
     width="112.73936"
     height="52"
     x="0.50050932"
     y="-17.630894"
     ry="9.9778624" /></g><g
   inkscape:groupmode="layer"
   id="layer2"
   inkscape:label="Layer 2"
   transform="translate(0,18.200001)"><polygon
     style="fill:#FFFFFF"
     class="st1"
     points="25.5,28.1 25.7,28.1 25.7,28 25.6,28 25.6,27.5 25.5,27.5 "
     id="polygon511"
     transform="matrix(1.3541916,0,0,1.3541916,16.129054,-14.855629)" /><g
     id="g523"
     transform="matrix(1.3541916,0,0,1.3541916,16.129054,-14.855629)">
	<defs
   id="defs514">
		<rect
   id="SVGID_1_"
   x="0.1"
   y="0.2"
   width="59.400002"
   height="34" />
	</defs>
	<clipPath
   id="SVGID_2_">
		<use
   xlink:href="#SVGID_1_"
   style="overflow:visible"
   id="use516"
   x="0"
   y="0"
   width="100%"
   height="100%" />
	</clipPath>
	<path
   class="st2"
   d="m 21.3,28.6 v 0 c 0,0 0,0.4 -0.2,0.5 -0.1,0.1 0,-0.3 0,-0.4 0.1,-0.1 0.1,-0.1 0.2,-0.1 0,-0.1 0,-0.1 0,0 0,0 0,0 0,0 M 21.2,28.5 C 21.1,28.6 21,28.8 21,29 c 0,0.1 0,0.2 0.1,0.2 0.3,0 0.3,-0.5 0.3,-0.6 0,-0.2 -0.1,-0.2 -0.2,-0.1"
   clip-path="url(#SVGID_2_)"
   id="path519"
   inkscape:connector-curvature="0"
   style="fill:#FFFFFF" />
	<path
   class="st2"
   d="m 24.2,28.2 c 0,0.1 0,0.4 -0.1,0.4 0,0 -0.1,0 -0.1,-0.1 0,0 0,-0.3 0,-0.4 0.1,0 0.2,-0.1 0.2,0.1 0,-0.1 0,-0.1 0,0 M 24.1,28 C 24,28.1 24,28.1 24,28.4 c 0,0.1 0,0.3 0.1,0.3 0.2,0 0.2,-0.2 0.2,-0.5 0,-0.3 -0.2,-0.2 -0.2,-0.2"
   clip-path="url(#SVGID_2_)"
   id="path521"
   inkscape:connector-curvature="0"
   style="fill:#FFFFFF" />
</g><polygon
     style="fill:#FFFFFF"
     class="st1"
     points="19.5,29.1 19.7,29.1 19.6,29.1 19.8,28.4 19.7,28.4 "
     id="polygon525"
     transform="matrix(1.3541916,0,0,1.3541916,16.129054,-14.855629)" /><polygon
     style="fill:#FFFFFF"
     class="st1"
     points="22.6,29 22.8,29 22.8,28.9 22.7,28.9 22.8,28.3 22.7,28.3 "
     id="polygon527"
     transform="matrix(1.3541916,0,0,1.3541916,16.129054,-14.855629)" /><g
     id="g539"
     transform="matrix(1.3541916,0,0,1.3541916,16.129054,-14.855629)">
	<defs
   id="defs530">
		<rect
   id="SVGID_3_"
   x="0.1"
   y="0.2"
   width="59.400002"
   height="34" />
	</defs>
	<clipPath
   id="SVGID_4_">
		<use
   xlink:href="#SVGID_3_"
   style="overflow:visible"
   id="use532"
   x="0"
   y="0"
   width="100%"
   height="100%" />
	</clipPath>
	<path
   class="st3"
   d="m 16.2,28.2 c 0,0 0.3,-0.6 0.4,-0.4 0,0 0,0 0,0 0,0 -0.2,0.4 -0.4,0.4 0.1,0.1 0,0.1 0,0 m 0,0.2 c 0.1,0 0.2,-0.1 0.3,-0.1 0,0 0.3,-0.3 0.3,-0.5 0,-0.1 -0.2,-0.1 -0.3,-0.1 -0.1,0.1 -0.3,0.4 -0.4,0.5 0,0 0,0.1 0.1,0.2"
   clip-path="url(#SVGID_4_)"
   id="path535"
   inkscape:connector-curvature="0"
   style="fill:#FFFFFF" />
	<path
   class="st3"
   d="m 17.9,28.7 c 0,0 0,-0.1 0,0 0.1,-0.3 0.2,-0.4 0.2,-0.4 0,-0.1 0.1,0 0.1,0 0,0 0,0 0,0 0,0 0,0.1 0,0.1 l -0.1,0.1 C 18,28.7 18,28.8 18,28.8 c -0.1,0 -0.1,0 -0.1,-0.1 m 0,0.2 c 0.3,0.1 0.5,-0.5 0.5,-0.6 0,-0.1 -0.1,-0.1 -0.2,-0.1 -0.2,0.1 -0.3,0.5 -0.3,0.5 -0.1,0.1 -0.1,0.2 0,0.2"
   clip-path="url(#SVGID_4_)"
   id="path537"
   inkscape:connector-curvature="0"
   style="fill:#FFFFFF" />
</g><polygon
     style="fill:#FFFFFF"
     class="st1"
     points="9.8,22.2 9.9,22.2 9.8,22.1 10.7,21.8 10.6,21.6 9.7,22 "
     id="polygon541"
     transform="matrix(1.3541916,0,0,1.3541916,16.129054,-14.855629)" /><g
     id="g551"
     transform="matrix(1.3541916,0,0,1.3541916,16.129054,-14.855629)">
	<defs
   id="defs544">
		<rect
   id="SVGID_5_"
   x="0.1"
   y="0.2"
   width="59.400002"
   height="34" />
	</defs>
	<clipPath
   id="SVGID_6_">
		<use
   xlink:href="#SVGID_5_"
   style="overflow:visible"
   id="use546"
   x="0"
   y="0"
   width="100%"
   height="100%" />
	</clipPath>
	<path
   class="st4"
   d="m 10.7,23.7 c 0,0 0,-0.1 0.4,-0.3 0.1,0 0.2,-0.1 0.2,0 0,0 0,0 0,0 0,0.1 -0.2,0.2 -0.3,0.2 -0.1,0.1 -0.3,0.2 -0.3,0.1 m 0.8,-0.3 c 0,-0.1 -0.1,-0.3 -0.5,0 -0.2,0.1 -0.3,0.2 -0.4,0.3 0,0.1 0,0.2 0.1,0.2 0.2,0 0.8,-0.3 0.8,-0.5"
   clip-path="url(#SVGID_6_)"
   id="path549"
   inkscape:connector-curvature="0"
   style="fill:#FFFFFF" />
</g><polygon
     style="fill:#FFFFFF"
     class="st1"
     points="14.7,27.7 14.8,27.6 14.7,27.5 15.2,26.9 15.1,26.9 14.6,27.6 "
     id="polygon553"
     transform="matrix(1.3541916,0,0,1.3541916,16.129054,-14.855629)" /><polygon
     style="fill:#FFFFFF"
     class="st1"
     points="12.5,24.7 11.7,25.3 11.9,25.4 11.9,25.3 12.5,24.8 "
     id="polygon555"
     transform="matrix(1.3541916,0,0,1.3541916,16.129054,-14.855629)" /><g
     id="g565"
     transform="matrix(1.3541916,0,0,1.3541916,16.129054,-14.855629)">
	<defs
   id="defs558">
		<rect
   id="SVGID_7_"
   x="0.1"
   y="0.2"
   width="59.400002"
   height="34" />
	</defs>
	<clipPath
   id="SVGID_8_">
		<use
   xlink:href="#SVGID_7_"
   style="overflow:visible"
   id="use560"
   x="0"
   y="0"
   width="100%"
   height="100%" />
	</clipPath>
	<path
   class="st5"
   d="m 13.2,26.5 c 0,-0.1 0.5,-0.5 0.5,-0.4 0,0 0,0 0,0 0,0.1 -0.3,0.4 -0.4,0.4 -0.1,0.1 -0.1,0 -0.1,0 m 0,0.1 c 0.2,0 0.7,-0.4 0.6,-0.6 0,0 -0.1,-0.2 -0.3,-0.1 -0.5,0.4 -0.6,0.7 -0.3,0.7"
   clip-path="url(#SVGID_8_)"
   id="path563"
   inkscape:connector-curvature="0"
   style="fill:#FFFFFF" />
</g><polygon
     style="fill:#FFFFFF"
     class="st1"
     points="9,16.2 9,16.1 9.9,16.1 9.9,16 8.9,15.9 8.9,16.2 "
     id="polygon567"
     transform="matrix(1.3541916,0,0,1.3541916,16.129054,-14.855629)" /><g
     id="g581"
     transform="matrix(1.3541916,0,0,1.3541916,16.129054,-14.855629)">
	<defs
   id="defs570">
		<rect
   id="SVGID_9_"
   x="0.1"
   y="0.2"
   width="59.400002"
   height="34" />
	</defs>
	<clipPath
   id="SVGID_10_">
		<use
   xlink:href="#SVGID_9_"
   style="overflow:visible"
   id="use572"
   x="0"
   y="0"
   width="100%"
   height="100%" />
	</clipPath>
	<path
   class="st6"
   d="m 9.7,18 c 0,0 0,0.1 0,0 -0.2,0.1 -0.6,0.1 -0.6,0.1 -0.1,0 -0.2,0 -0.1,-0.1 0,-0.1 0.2,-0.1 0.4,-0.1 0.2,0 0.3,0 0.3,0.1 0,0 0,0 0,0 m 0.1,0 C 9.7,17.7 9,17.9 8.9,18 8.7,18 8.7,18.2 9,18.3 c 0,0 0.9,0 0.8,-0.3"
   clip-path="url(#SVGID_10_)"
   id="path575"
   inkscape:connector-curvature="0"
   style="fill:#FFFFFF" />
	<path
   class="st6"
   d="m 9.4,14 c 0.1,-0.1 0.3,0 0.5,0 0.1,0 0.2,0.1 0.2,0.1 0,0 0,0 0,0 -0.1,0 -0.3,0 -0.4,0 -0.1,0 -0.4,0 -0.3,-0.1 m 0.9,0.1 c 0,-0.3 -0.8,-0.3 -0.9,-0.2 0,0 -0.3,0.3 0.3,0.4 0.1,0 0.6,0.1 0.6,-0.2"
   clip-path="url(#SVGID_10_)"
   id="path577"
   inkscape:connector-curvature="0"
   style="fill:#FFFFFF" />
	<path
   class="st6"
   d="m 9.2,20.1 c 0,0 0,-0.1 0.5,-0.2 0.2,0 0.3,-0.1 0.3,0 0,0 0,0 0,0 0,0 0,0.1 -0.1,0.1 -0.1,0.1 -0.7,0.3 -0.7,0.1 m 0.9,-0.2 c -0.1,-0.3 -0.8,0 -0.9,0 -0.2,0.1 -0.1,0.3 0.1,0.4 0.1,0 0.9,-0.1 0.8,-0.4"
   clip-path="url(#SVGID_10_)"
   id="path579"
   inkscape:connector-curvature="0"
   style="fill:#FFFFFF" />
</g><polygon
     style="fill:#FFFFFF"
     class="st1"
     points="9.9,12.2 10.1,12.2 10.9,12.4 11,12.3 10,12 "
     id="polygon583"
     transform="matrix(1.3541916,0,0,1.3541916,16.129054,-14.855629)" /><g
     id="g595"
     transform="matrix(1.3541916,0,0,1.3541916,16.129054,-14.855629)">
	<defs
   id="defs586">
		<rect
   id="SVGID_11_"
   x="0.1"
   y="0.2"
   width="59.400002"
   height="34" />
	</defs>
	<clipPath
   id="SVGID_12_">
		<use
   xlink:href="#SVGID_11_"
   style="overflow:visible"
   id="use588"
   x="0"
   y="0"
   width="100%"
   height="100%" />
	</clipPath>
	<path
   class="st7"
   d="m 13,9.1 c 0,0 0,0 0,0 -0.1,0 -0.1,0.1 -0.4,-0.1 -0.2,-0.1 -0.3,-0.2 -0.2,-0.2 0,0 0.1,0 0.2,0 0.1,0 0.4,0.2 0.4,0.3 0,0 0,0 0,0 m 0.1,0 v 0 C 13.1,9 12.9,8.8 12.7,8.7 12.5,8.6 12.4,8.6 12.3,8.6 c -0.4,0.2 0.3,0.5 0.4,0.6 0.4,0.1 0.4,0 0.4,-0.1"
   clip-path="url(#SVGID_12_)"
   id="path591"
   inkscape:connector-curvature="0"
   style="fill:#FFFFFF" />
	<path
   class="st7"
   d="m 11.1,10.4 c 0,0 0.1,0 0.2,0 0,0 0.4,0.2 0.5,0.2 0,0 0,0 0,0 0,0 0,0 0,0 0,0 -0.1,0 -0.4,-0.1 -0.2,0 -0.3,-0.1 -0.3,-0.1 m 0.5,0.4 c 0.3,0.1 0.4,-0.2 0.4,-0.2 0,-0.1 -0.1,-0.2 -0.4,-0.3 -0.1,-0.1 -0.3,-0.1 -0.4,-0.1 -0.4,0.2 0,0.5 0.4,0.6"
   clip-path="url(#SVGID_12_)"
   id="path593"
   inkscape:connector-curvature="0"
   style="fill:#FFFFFF" />
</g><polygon
     style="fill:#FFFFFF"
     class="st1"
     points="13.7,7.6 13.8,7.5 14.4,8 14.5,7.9 13.8,7.4 13.7,7.5 "
     id="polygon597"
     transform="matrix(1.3541916,0,0,1.3541916,16.129054,-14.855629)" /><g
     id="g607"
     transform="matrix(1.3541916,0,0,1.3541916,16.129054,-14.855629)">
	<defs
   id="defs600">
		<rect
   id="SVGID_13_"
   x="0.1"
   y="0.2"
   width="59.400002"
   height="34" />
	</defs>
	<clipPath
   id="SVGID_14_">
		<use
   xlink:href="#SVGID_13_"
   style="overflow:visible"
   id="use602"
   x="0"
   y="0"
   width="100%"
   height="100%" />
	</clipPath>
	<path
   class="st8"
   d="M 17.1,6 C 16.8,5.7 16.9,5.6 16.9,5.6 c 0,0 0.1,0 0.1,0 0,0 0.2,0.3 0.3,0.4 0,0 0,0 0,0.1 0,0 -0.1,0 -0.2,-0.1 m 0.3,0 c 0,0 -0.3,-0.6 -0.5,-0.5 -0.3,0.1 0.2,0.6 0.3,0.6 0.1,0.1 0.3,0.1 0.2,-0.1"
   clip-path="url(#SVGID_14_)"
   id="path605"
   inkscape:connector-curvature="0"
   style="fill:#FFFFFF" />
</g><polygon
     style="fill:#FFFFFF"
     class="st1"
     points="15.2,6.5 15.3,6.4 15.8,7 15.9,6.9 15.3,6.3 15.2,6.4 "
     id="polygon609"
     transform="matrix(1.3541916,0,0,1.3541916,16.129054,-14.855629)" /><polygon
     style="fill:#FFFFFF"
     class="st1"
     points="18.4,5.1 18.5,5.1 18.8,5.6 18.9,5.6 18.6,5 18.4,5 "
     id="polygon611"
     transform="matrix(1.3541916,0,0,1.3541916,16.129054,-14.855629)" /><g
     id="g627"
     transform="matrix(1.3541916,0,0,1.3541916,16.129054,-14.855629)">
	<defs
   id="defs614">
		<rect
   id="SVGID_15_"
   x="0.1"
   y="0.2"
   width="59.400002"
   height="34" />
	</defs>
	<clipPath
   id="SVGID_16_">
		<use
   xlink:href="#SVGID_15_"
   style="overflow:visible"
   id="use616"
   x="0"
   y="0"
   width="100%"
   height="100%" />
	</clipPath>
	<path
   class="st9"
   d="m 20.4,5.2 c -0.1,0 -0.3,-0.5 -0.3,-0.5 0,0 0.1,0 0.2,0.1 0.1,0.4 0.1,0.4 0.1,0.4 M 20.1,4.7 C 20,4.7 20,4.8 20.1,5 20.2,5.1 20.2,5.3 20.4,5.3 20.7,5.4 20.5,5 20.5,4.9 20.3,4.6 20.2,4.6 20.1,4.7"
   clip-path="url(#SVGID_16_)"
   id="path619"
   inkscape:connector-curvature="0"
   style="fill:#FFFFFF" />
	<path
   class="st9"
   d="m 22.9,30 c 0,-0.1 0.1,-0.1 0.1,-0.1 0,0 0,0.1 0,0.1 0,0 0,0.4 -0.1,0.5 -0.2,0 0,-0.5 0,-0.5 m 0.2,-0.1 c 0,-0.3 -0.2,-0.1 -0.3,-0.1 -0.1,0.1 -0.1,0.2 -0.2,0.5 0,0.1 0,0.3 0.1,0.3 0.4,0 0.4,-0.5 0.4,-0.7"
   clip-path="url(#SVGID_16_)"
   id="path621"
   inkscape:connector-curvature="0"
   style="fill:#FFFFFF" />
	<path
   class="st9"
   d="m 9.8,26.7 c 0,-0.2 1,-0.9 1.1,-0.8 0,0 0,0.1 0,0.1 -0.1,0.2 -0.8,0.7 -0.9,0.7 -0.2,0.2 -0.2,0 -0.2,0 M 9.9,27 c 0.4,0.1 1.4,-0.7 1.3,-1 0,0 -0.1,-0.5 -0.8,-0.2 -1.5,1 -0.5,1.2 -0.5,1.2"
   clip-path="url(#SVGID_16_)"
   id="path623"
   inkscape:connector-curvature="0"
   style="fill:#FFFFFF" />
	<path
   class="st9"
   d="m 7.6,16.6 c 0,0 0,0 0,0 0,0.1 0,0.1 -0.1,0.2 -0.2,0.1 -1.6,0.2 -1.4,-0.1 0.1,-0.1 0.3,-0.1 0.8,-0.2 0.7,0 0.7,0.1 0.7,0.1 M 6.1,16.3 c -0.2,0.2 -0.3,0.7 0.4,0.8 0.4,0 1.5,0.1 1.4,-0.5 0,-0.3 -0.4,-0.4 -0.5,-0.4 0,0 -0.9,-0.1 -1.3,0.1"
   clip-path="url(#SVGID_16_)"
   id="path625"
   inkscape:connector-curvature="0"
   style="fill:#FFFFFF" />
</g><polygon
     style="fill:#FFFFFF"
     class="st1"
     points="6.2,19.3 6.2,19.1 7.9,18.8 7.9,18.5 6,18.8 6,19.3 "
     id="polygon629"
     transform="matrix(1.3541916,0,0,1.3541916,16.129054,-14.855629)" /><g
     id="g639"
     transform="matrix(1.3541916,0,0,1.3541916,16.129054,-14.855629)">
	<defs
   id="defs632">
		<rect
   id="SVGID_17_"
   x="0.1"
   y="0.2"
   width="59.400002"
   height="34" />
	</defs>
	<clipPath
   id="SVGID_18_">
		<use
   xlink:href="#SVGID_17_"
   style="overflow:visible"
   id="use634"
   x="0"
   y="0"
   width="100%"
   height="100%" />
	</clipPath>
	<path
   class="st10"
   d="m 7.4,23.2 c 0,-0.2 1.3,-0.7 1.4,-0.5 0,0 0,0 0,0 0,0.1 -0.1,0.2 -0.2,0.2 0,0.1 -1.3,0.8 -1.2,0.3 m 0.1,0.4 C 7.8,23.7 9.1,23.2 9,22.7 8.9,21.9 7.4,22.8 7.4,22.8 6.9,23.2 7.3,23.6 7.5,23.6"
   clip-path="url(#SVGID_18_)"
   id="path637"
   inkscape:connector-curvature="0"
   style="fill:#FFFFFF" />
</g><polygon
     style="fill:#FFFFFF"
     class="st1"
     points="8.2,25.1 8.5,25.5 8.6,25.4 8.5,25.2 10,24.4 9.8,24.2 "
     id="polygon641"
     transform="matrix(1.3541916,0,0,1.3541916,16.129054,-14.855629)" /><polygon
     style="fill:#FFFFFF"
     class="st1"
     points="6.4,14.7 6.4,14.5 8.1,14.7 8.2,14.5 6.3,14.3 6.2,14.7 "
     id="polygon643"
     transform="matrix(1.3541916,0,0,1.3541916,16.129054,-14.855629)" /><polygon
     style="fill:#FFFFFF"
     class="st1"
     points="11.1,28.2 11.4,28.4 11.5,28.3 11.4,28.2 12.5,27.1 12.3,27 "
     id="polygon645"
     transform="matrix(1.3541916,0,0,1.3541916,16.129054,-14.855629)" /><g
     id="g661"
     transform="matrix(1.3541916,0,0,1.3541916,16.129054,-14.855629)">
	<defs
   id="defs648">
		<rect
   id="SVGID_19_"
   x="0.1"
   y="0.2"
   width="59.400002"
   height="34" />
	</defs>
	<clipPath
   id="SVGID_20_">
		<use
   xlink:href="#SVGID_19_"
   style="overflow:visible"
   id="use650"
   x="0"
   y="0"
   width="100%"
   height="100%" />
	</clipPath>
	<path
   class="st11"
   d="m 8.5,12.6 c 0,0 0,0 0,0 0,0.1 0,0.1 -0.1,0.1 -0.1,0 -0.2,0.1 -1.1,-0.2 C 7,12.4 7,12.3 7,12.3 c 0.1,-0.1 0.3,-0.1 0.6,0 0.9,0.1 0.9,0.2 0.9,0.3 M 7.1,12 C 6.9,12.1 6.5,12.7 8,12.9 8.8,13 8.8,12.5 8.8,12.5 8.7,12.1 7.4,11.8 7.1,12"
   clip-path="url(#SVGID_20_)"
   id="path653"
   inkscape:connector-curvature="0"
   style="fill:#FFFFFF" />
	<path
   class="st11"
   d="m 6.6,21.1 c 0,-0.2 1.3,-0.5 1.4,-0.4 0,0 0,0.1 0,0.1 0,0.1 -0.1,0.1 -0.1,0.2 -0.1,0 -1.4,0.5 -1.3,0.1 m 0.1,0.4 c 0.3,0 1.6,-0.2 1.6,-0.7 0,-0.8 -1.7,0 -1.7,0 -0.4,0.3 -0.2,0.6 0.1,0.7"
   clip-path="url(#SVGID_20_)"
   id="path655"
   inkscape:connector-curvature="0"
   style="fill:#FFFFFF" />
	<path
   class="st11"
   d="m 20.2,30.2 c 0,0.1 -0.1,0.6 -0.3,0.7 -0.2,0.1 -0.1,-0.3 0,-0.6 0.1,-0.3 0.3,-0.2 0.3,-0.1 0,0 0,0 0,0 M 20,30 c -0.2,0.1 -0.3,0.5 -0.3,0.7 0,0.2 0,0.3 0.1,0.3 0.1,0 0.2,0 0.4,-0.2 0.1,-0.1 0.2,-0.5 0.2,-0.7 C 20.3,29.9 20.1,30 20,30"
   clip-path="url(#SVGID_20_)"
   id="path657"
   inkscape:connector-curvature="0"
   style="fill:#FFFFFF" />
	<path
   class="st11"
   d="m 16.5,30.6 c -0.1,0 -0.2,0 -0.1,-0.2 0,-0.1 0.3,-0.6 0.4,-0.7 0.2,-0.2 0.2,-0.1 0.2,0 0,0 0,0 0,0 0,0.1 -0.3,0.8 -0.5,0.9 m 0.7,-1 c 0,-0.2 -0.3,-0.2 -0.5,-0.1 -0.3,0.2 -0.6,0.9 -0.6,0.9 0,0.2 0,0.3 0.2,0.4 0.2,0.1 0.4,-0.1 0.5,-0.2 0,-0.1 0.4,-0.7 0.4,-1"
   clip-path="url(#SVGID_20_)"
   id="path659"
   inkscape:connector-curvature="0"
   style="fill:#FFFFFF" />
</g><polygon
     style="fill:#FFFFFF"
     class="st1"
     points="18.2,30.9 18.7,29.8 18.5,29.7 17.9,31.1 18.3,31.1 18.3,31 "
     id="polygon663"
     transform="matrix(1.3541916,0,0,1.3541916,16.129054,-14.855629)" /><polygon
     style="fill:#FFFFFF"
     class="st1"
     points="21.4,31 21.6,30.9 21.7,30.8 21.6,30.8 21.8,29.9 21.6,29.9 "
     id="polygon665"
     transform="matrix(1.3541916,0,0,1.3541916,16.129054,-14.855629)" /><polygon
     style="fill:#FFFFFF"
     class="st1"
     points="14.8,29.9 15.4,28.9 15.3,28.8 14.5,29.9 14.8,30 14.9,29.9 "
     id="polygon667"
     transform="matrix(1.3541916,0,0,1.3541916,16.129054,-14.855629)" /><g
     id="g679"
     transform="matrix(1.3541916,0,0,1.3541916,16.129054,-14.855629)">
	<defs
   id="defs670">
		<rect
   id="SVGID_21_"
   x="0.1"
   y="0.2"
   width="59.400002"
   height="34" />
	</defs>
	<clipPath
   id="SVGID_22_">
		<use
   xlink:href="#SVGID_21_"
   style="overflow:visible"
   id="use672"
   x="0"
   y="0"
   width="100%"
   height="100%" />
	</clipPath>
	<path
   class="st12"
   d="m 13.8,28.3 c 0,0.1 -0.5,0.8 -0.7,0.9 -0.1,0.1 -0.2,0 -0.2,-0.1 0.1,-0.2 0.8,-1.1 0.9,-0.8 0,0 0,0 0,0 m 0.2,0 c 0,0 -0.1,-0.4 -0.6,-0.1 -0.5,0.4 -1.1,1.2 -0.4,1.3 0.4,0 1.1,-0.9 1,-1.2"
   clip-path="url(#SVGID_22_)"
   id="path675"
   inkscape:connector-curvature="0"
   style="fill:#FFFFFF" />
	<path
   class="st12"
   d="m 12.4,6.2 c 0.1,0 0.5,0.4 0.6,0.5 0,0 0,0.1 0,0.1 0,0 0,0 -0.1,0 -0.1,0 -0.2,0 -0.4,-0.2 -0.4,-0.3 -0.4,-0.4 -0.4,-0.4 0,-0.1 0.1,-0.2 0.3,0 M 11.9,6.4 C 12,6.6 12.4,6.9 12.7,7 13,7.1 13.2,6.9 13.2,6.7 13.2,6.5 12.5,5.9 12.1,6 11.9,6.1 11.9,6.2 11.9,6.4"
   clip-path="url(#SVGID_22_)"
   id="path677"
   inkscape:connector-curvature="0"
   style="fill:#FFFFFF" />
</g><polygon
     style="fill:#FFFFFF"
     class="st1"
     points="10.7,9.2 10.9,9 9.6,8.3 9.4,8.6 9.5,8.7 9.6,8.6 "
     id="polygon681"
     transform="matrix(1.3541916,0,0,1.3541916,16.129054,-14.855629)" /><g
     id="g691"
     transform="matrix(1.3541916,0,0,1.3541916,16.129054,-14.855629)">
	<defs
   id="defs684">
		<rect
   id="SVGID_23_"
   x="0.1"
   y="0.2"
   width="59.400002"
   height="34" />
	</defs>
	<clipPath
   id="SVGID_24_">
		<use
   xlink:href="#SVGID_23_"
   style="overflow:visible"
   id="use686"
   x="0"
   y="0"
   width="100%"
   height="100%" />
	</clipPath>
	<path
   class="st13"
   d="m 8.1,10.2 c 0.1,-0.2 1.2,0.2 1.3,0.4 0,0 0,0.1 0,0.1 0,0 0,0 -0.1,0.1 -0.1,0 -0.2,0.1 -1,-0.2 C 8.2,10.4 8.1,10.3 8.1,10.2 M 9,11 C 9.7,11.1 9.7,10.6 9.7,10.6 9.7,10.3 9.3,10.2 8.8,10 8.3,9.8 8.1,9.9 8,10 c -0.5,0.3 0.2,0.8 1,1"
   clip-path="url(#SVGID_24_)"
   id="path689"
   inkscape:connector-curvature="0"
   style="fill:#FFFFFF" />
</g><polygon
     style="fill:#FFFFFF"
     class="st1"
     points="11.9,7.9 10.7,7.1 10.5,7.4 10.6,7.4 10.7,7.3 11.8,8 "
     id="polygon693"
     transform="matrix(1.3541916,0,0,1.3541916,16.129054,-14.855629)" /><polygon
     style="fill:#FFFFFF"
     class="st1"
     points="16.3,3.9 16.4,3.9 17,4.8 17.2,4.7 16.5,3.7 16.2,3.8 "
     id="polygon695"
     transform="matrix(1.3541916,0,0,1.3541916,16.129054,-14.855629)" /><g
     id="g707"
     transform="matrix(1.3541916,0,0,1.3541916,16.129054,-14.855629)">
	<defs
   id="defs698">
		<rect
   id="SVGID_25_"
   x="0.1"
   y="0.2"
   width="59.400002"
   height="34" />
	</defs>
	<clipPath
   id="SVGID_26_">
		<use
   xlink:href="#SVGID_25_"
   style="overflow:visible"
   id="use700"
   x="0"
   y="0"
   width="100%"
   height="100%" />
	</clipPath>
	<path
   class="st14"
   d="M 15.6,5.2 C 15.5,5.2 15.5,5.2 15.3,5 15,4.6 15,4.5 15,4.5 c 0.1,-0.2 0.6,0.5 0.7,0.6 0,0 0,0.1 -0.1,0.1 M 15,4.3 c -0.2,0.1 -0.2,0.2 -0.1,0.3 0.1,0.1 0.3,0.5 0.6,0.7 0.2,0.1 0.5,0 0.5,-0.2 -0.1,-0.2 -0.6,-1 -1,-0.8"
   clip-path="url(#SVGID_26_)"
   id="path703"
   inkscape:connector-curvature="0"
   style="fill:#FFFFFF" />
	<path
   class="st14"
   d="M 18.4,4.3 C 18.3,4.3 18.2,4.2 18.2,4.1 18.1,4 17.9,3.6 18,3.5 c 0,-0.1 0.2,0 0.4,0.4 0.1,0.3 0.1,0.3 0,0.4 M 17.8,3.4 c -0.1,0.1 -0.1,0.2 0,0.5 0.1,0.2 0.2,0.5 0.5,0.5 0.1,0 0.4,0 0.2,-0.5 C 18.4,3.7 18.2,3.2 17.8,3.4"
   clip-path="url(#SVGID_26_)"
   id="path705"
   inkscape:connector-curvature="0"
   style="fill:#FFFFFF" />
</g><polygon
     style="fill:#FFFFFF"
     class="st1"
     points="13.4,5.3 13.5,5.2 14.3,6 14.5,5.9 13.6,5 13.3,5.2 "
     id="polygon709"
     transform="matrix(1.3541916,0,0,1.3541916,16.129054,-14.855629)" /><polygon
     style="fill:#FFFFFF"
     class="st1"
     points="22.1,3.3 22.4,4.2 22.5,4.2 22.3,3.3 22,3.2 22,3.3 "
     id="polygon711"
     transform="matrix(1.3541916,0,0,1.3541916,16.129054,-14.855629)" /><polygon
     style="fill:#FFFFFF"
     class="st1"
     points="24.6,4 24.7,4.7 24.8,4.8 24.7,4 24.5,3.9 24.5,4 "
     id="polygon713"
     transform="matrix(1.3541916,0,0,1.3541916,16.129054,-14.855629)" /><polygon
     style="fill:#FFFFFF"
     class="st1"
     points="19.5,3.2 19.2,3.2 19.2,3.3 19.3,3.3 19.7,4.2 19.9,4.2 "
     id="polygon715"
     transform="matrix(1.3541916,0,0,1.3541916,16.129054,-14.855629)" /><g
     id="g779"
     transform="matrix(1.3541916,0,0,1.3541916,16.129054,-14.855629)">
	<defs
   id="defs718">
		<rect
   id="SVGID_27_"
   x="0.1"
   y="0.2"
   width="59.400002"
   height="34" />
	</defs>
	<clipPath
   id="SVGID_28_">
		<use
   xlink:href="#SVGID_27_"
   style="overflow:visible"
   id="use720"
   x="0"
   y="0"
   width="100%"
   height="100%" />
	</clipPath>
	<path
   class="st15"
   d="m 21.1,3.9 c 0,0.1 0,0.1 0,0.1 -0.1,0 -0.2,-0.1 -0.2,-0.2 0,0 -0.2,-0.5 -0.2,-0.6 0,0 0.1,0 0.2,0.1 0.1,0.1 0.2,0.4 0.2,0.6 M 20.7,3.1 c -0.1,0 -0.2,0.1 0.1,0.6 C 20.9,3.9 21,4 21.2,4 21.7,4.1 21.3,3.4 21.3,3.3 21,3.1 20.7,3.1 20.7,3.1"
   clip-path="url(#SVGID_28_)"
   id="path723"
   inkscape:connector-curvature="0"
   style="fill:#FFFFFF" />
	<path
   class="st15"
   d="m 23.7,4.4 c 0,0 -0.1,0 -0.1,-0.1 0,0 -0.1,-0.4 -0.1,-0.5 0,0 0.1,0 0.1,0.1 0.1,-0.1 0.2,0.4 0.1,0.5 M 23.4,3.6 c -0.1,0.1 0,0.6 0,0.6 0.1,0.2 0.2,0.3 0.3,0.3 C 24,4.6 23.8,3.9 23.8,3.9 23.7,3.6 23.5,3.6 23.4,3.6"
   clip-path="url(#SVGID_28_)"
   id="path725"
   inkscape:connector-curvature="0"
   style="fill:#FFFFFF" />
	<path
   class="st15"
   d="m 15.8,32.6 0.4,0.1 0.1,-0.1 h -0.2 c 0.1,-0.3 0.3,-0.8 0.5,-1.1 h -0.2 c -0.3,0.2 -0.5,0.7 -0.6,1.1"
   clip-path="url(#SVGID_28_)"
   id="path727"
   inkscape:connector-curvature="0"
   style="fill:#FFFFFF" />
	<path
   class="st15"
   d="m 13.4,31.8 c -0.1,0 -0.3,0 -0.2,-0.3 0,-0.1 0.3,-0.6 0.6,-0.9 0.2,-0.2 0.3,-0.1 0.3,0 0,0.2 -0.4,1.1 -0.7,1.2 m 0.3,-1.4 c -0.3,0.2 -0.7,0.9 -0.8,1.1 0,0.1 -0.1,0.4 0.3,0.5 0.4,0.1 0.6,-0.2 0.7,-0.3 0,0 0.6,-0.7 0.5,-1.1 -0.1,-0.2 -0.4,-0.3 -0.7,-0.2"
   clip-path="url(#SVGID_28_)"
   id="path729"
   inkscape:connector-curvature="0"
   style="fill:#FFFFFF" />
	<path
   class="st16"
   d="m 13.4,31.8 c -0.1,0 -0.3,0 -0.2,-0.3 0,-0.1 0.3,-0.6 0.6,-0.9 0.2,-0.2 0.3,-0.1 0.3,0 0,0.2 -0.4,1.1 -0.7,1.2 z m 0.3,-1.4 c -0.3,0.2 -0.7,0.9 -0.8,1.1 0,0.1 -0.1,0.4 0.3,0.5 0.4,0.1 0.6,-0.2 0.7,-0.3 0,0 0.6,-0.7 0.5,-1.1 -0.1,-0.2 -0.4,-0.3 -0.7,-0.2 z"
   clip-path="url(#SVGID_28_)"
   id="path731"
   inkscape:connector-curvature="0"
   style="fill:none;stroke:#FFFFFF;stroke-width:0.106;stroke-miterlimit:10" />
	<path
   class="st15"
   d="m 18.8,31.9 c 0,0.1 -0.1,0.7 -0.3,0.8 -0.2,0.1 -0.1,-0.4 0,-0.6 0.1,-0.4 0.3,-0.2 0.3,-0.2 0,0 0,0 0,0 m -0.2,-0.1 c -0.1,0 -0.2,0.1 -0.3,0.7 0,0.2 0,0.3 0.1,0.4 0,0 0.3,0.1 0.4,-0.2 0.1,-0.2 0.3,-0.6 0.2,-0.8 -0.1,-0.2 -0.3,-0.2 -0.4,-0.1"
   clip-path="url(#SVGID_28_)"
   id="path733"
   inkscape:connector-curvature="0"
   style="fill:#FFFFFF" />
	<path
   class="st15"
   d="m 9.7,30.4 0.5,0.3 0.2,-0.2 -0.2,-0.1 c 0.4,-0.4 1,-1 1.4,-1.5 l -0.3,-0.2 c -0.5,0.5 -1.1,1.2 -1.6,1.7"
   clip-path="url(#SVGID_28_)"
   id="path735"
   inkscape:connector-curvature="0"
   style="fill:#FFFFFF" />
	<path
   class="st17"
   d="m 9.7,30.4 0.5,0.3 0.2,-0.2 -0.2,-0.1 c 0.4,-0.4 1,-1 1.4,-1.5 l -0.3,-0.2 c -0.5,0.5 -1.1,1.2 -1.6,1.7 z"
   clip-path="url(#SVGID_28_)"
   id="path737"
   inkscape:connector-curvature="0"
   style="fill:none;stroke:#FFFFFF;stroke-width:0.317;stroke-miterlimit:10" />
	<path
   class="st15"
   d="m 4.8,10.4 c 0.7,0.2 1.5,0.5 2.2,0.7 L 7.2,10.7 C 6.5,10.5 5.5,10.2 4.8,10 l -0.3,0.6 0.3,0.1 z"
   clip-path="url(#SVGID_28_)"
   id="path739"
   inkscape:connector-curvature="0"
   style="fill:#FFFFFF" />
	<path
   class="st18"
   d="m 4.8,10.4 c 0.7,0.2 1.5,0.5 2.2,0.7 L 7.2,10.7 C 6.5,10.5 5.5,10.2 4.8,10 l -0.3,0.6 0.3,0.1 z"
   clip-path="url(#SVGID_28_)"
   id="path741"
   inkscape:connector-curvature="0"
   style="fill:none;stroke:#FFFFFF;stroke-width:0.42300001;stroke-miterlimit:10" />
	<path
   class="st15"
   d="m 3.5,13.8 c 0.1,-0.2 0.5,-0.2 0.8,-0.2 1.1,0.1 1.3,0.2 1.3,0.3 0,0 0,0.1 0,0.1 0,0 0,0.1 -0.1,0.1 -0.3,0.3 -2.2,0.2 -2,-0.3 m -0.2,0.5 c 0.2,0.3 0.9,0.3 1.2,0.4 C 5.8,14.8 6,14.3 5.9,14 5.9,13.3 3.9,13.1 3.4,13.5 3.2,13.6 3.1,14 3.3,14.3"
   clip-path="url(#SVGID_28_)"
   id="path743"
   inkscape:connector-curvature="0"
   style="fill:#FFFFFF" />
	<path
   class="st19"
   d="m 3.5,13.8 c 0.1,-0.2 0.5,-0.2 0.8,-0.2 1.1,0.1 1.3,0.2 1.3,0.3 0,0 0,0.1 0,0.1 0,0 0,0.1 -0.1,0.1 -0.3,0.3 -2.2,0.2 -2,-0.3 z m -0.2,0.5 c 0.2,0.3 0.9,0.3 1.2,0.4 C 5.8,14.8 6,14.3 5.9,14 5.9,13.3 3.9,13.1 3.4,13.5 3.2,13.6 3.1,14 3.3,14.3 Z"
   clip-path="url(#SVGID_28_)"
   id="path745"
   inkscape:connector-curvature="0"
   style="fill:none;stroke:#FFFFFF;stroke-width:0.43099999;stroke-miterlimit:10" />
	<path
   class="st15"
   d="M 7.1,24 C 6.4,24.3 5.4,24.8 4.7,25.2 L 5,25.8 5.3,25.7 5.1,25.4 c 0.6,-0.3 1.5,-0.7 2.1,-1 z"
   clip-path="url(#SVGID_28_)"
   id="path747"
   inkscape:connector-curvature="0"
   style="fill:#FFFFFF" />
	<path
   class="st17"
   d="M 7.1,24 C 6.4,24.3 5.4,24.8 4.7,25.2 L 5,25.8 5.3,25.7 5.1,25.4 c 0.6,-0.3 1.5,-0.7 2.1,-1 z"
   clip-path="url(#SVGID_28_)"
   id="path749"
   inkscape:connector-curvature="0"
   style="fill:none;stroke:#FFFFFF;stroke-width:0.317;stroke-miterlimit:10" />
	<path
   class="st15"
   d="m 5.5,17.4 c -0.8,0.1 -1.9,0.1 -2.7,0.2 v 0.7 H 3.1 V 18 c 0.7,0 1.7,-0.1 2.5,-0.2 z"
   clip-path="url(#SVGID_28_)"
   id="path751"
   inkscape:connector-curvature="0"
   style="fill:#FFFFFF" />
	<path
   class="st20"
   d="m 5.5,17.4 c -0.8,0.1 -1.9,0.1 -2.7,0.2 v 0.7 H 3.1 V 18 c 0.7,0 1.7,-0.1 2.5,-0.2 z"
   clip-path="url(#SVGID_28_)"
   id="path753"
   inkscape:connector-curvature="0"
   style="fill:none;stroke:#FFFFFF;stroke-width:0.42699999;stroke-miterlimit:10" />
	<path
   class="st15"
   d="M 3.6,21.6 C 3.6,21.5 3.7,21.3 5,21.1 5.4,21 5.6,21 5.6,21.2 c 0,0 0,0 0,0 0,0.1 -0.1,0.2 -0.2,0.2 -0.3,0.2 -2,0.7 -1.8,0.2 M 6,21 v 0 C 5.7,20 3.7,20.9 3.5,21.1 3,21.5 3.3,22.2 3.8,22.2 4.1,22.2 6.3,22 6,21"
   clip-path="url(#SVGID_28_)"
   id="path755"
   inkscape:connector-curvature="0"
   style="fill:#FFFFFF" />
	<path
   class="st19"
   d="M 3.6,21.6 C 3.6,21.5 3.7,21.3 5,21.1 5.4,21 5.6,21 5.6,21.2 c 0,0 0,0 0,0 0,0.1 -0.1,0.2 -0.2,0.2 -0.3,0.2 -2,0.7 -1.8,0.2 z M 6,21 v 0 C 5.7,20 3.7,20.9 3.5,21.1 3,21.5 3.3,22.2 3.8,22.2 4.1,22.2 6.3,22 6,21 Z"
   clip-path="url(#SVGID_28_)"
   id="path757"
   inkscape:connector-curvature="0"
   style="fill:none;stroke:#FFFFFF;stroke-width:0.43099999;stroke-miterlimit:10" />
	<path
   class="st15"
   d="m 9,27.1 c -0.1,0.3 -1.1,1 -1.2,1 C 7.3,28.4 7.3,28 7.3,28 7.3,27.8 8.7,26.7 8.9,27 9,27 9,27.1 9,27.1 M 9.3,27 C 9.2,26.8 9,26.3 8.1,26.8 6,28.1 7.5,28.5 7.5,28.5 8,28.6 9.5,27.6 9.3,27"
   clip-path="url(#SVGID_28_)"
   id="path759"
   inkscape:connector-curvature="0"
   style="fill:#FFFFFF" />
	<path
   class="st17"
   d="m 9,27.1 c -0.1,0.3 -1.1,1 -1.2,1 C 7.3,28.4 7.3,28 7.3,28 7.3,27.8 8.7,26.7 8.9,27 9,27 9,27.1 9,27.1 Z M 9.3,27 C 9.2,26.8 9,26.3 8.1,26.8 6,28.1 7.5,28.5 7.5,28.5 8,28.6 9.5,27.6 9.3,27 Z"
   clip-path="url(#SVGID_28_)"
   id="path761"
   inkscape:connector-curvature="0"
   style="fill:none;stroke:#FFFFFF;stroke-width:0.317;stroke-miterlimit:10" />
	<path
   class="st15"
   d="M 9.6,4.9 9.8,4.7 c 0.4,0.4 1,0.8 1.4,1.2 L 11.5,5.7 C 11,5.3 10.4,4.8 9.9,4.4 L 9.4,4.7 Z"
   clip-path="url(#SVGID_28_)"
   id="path763"
   inkscape:connector-curvature="0"
   style="fill:#FFFFFF" />
	<path
   class="st21"
   d="M 9.6,4.9 9.8,4.7 c 0.4,0.4 1,0.8 1.4,1.2 L 11.5,5.7 C 11,5.3 10.4,4.8 9.9,4.4 L 9.4,4.7 Z"
   clip-path="url(#SVGID_28_)"
   id="path765"
   inkscape:connector-curvature="0"
   style="fill:none;stroke:#FFFFFF;stroke-width:0.211;stroke-miterlimit:10" />
	<path
   class="st15"
   d="m 15.7,2 c 0.3,-0.3 0.8,0.9 0.8,0.9 0.1,0.2 0,0.2 0,0.3 -0.1,0 -0.2,0 -0.4,-0.2 C 15.7,2.4 15.6,2.1 15.7,2 m -0.2,0.5 c 0.3,0.5 0.5,0.8 0.8,0.9 0,0 0.8,0.1 0.5,-0.6 0,0 -0.3,-0.6 -0.6,-0.9 -0.1,-0.1 -0.3,-0.2 -0.7,-0.1 -0.1,0.1 -0.3,0.2 0,0.7"
   clip-path="url(#SVGID_28_)"
   id="path767"
   inkscape:connector-curvature="0"
   style="fill:#FFFFFF" />
	<path
   class="st16"
   d="m 15.7,2 c 0.3,-0.3 0.8,0.9 0.8,0.9 0.1,0.2 0,0.2 0,0.3 -0.1,0 -0.2,0 -0.4,-0.2 C 15.7,2.4 15.6,2.1 15.7,2 Z m -0.2,0.5 c 0.3,0.5 0.5,0.8 0.8,0.9 0,0 0.8,0.1 0.5,-0.6 0,0 -0.3,-0.6 -0.6,-0.9 -0.1,-0.1 -0.3,-0.2 -0.7,-0.1 -0.1,0.1 -0.3,0.2 0,0.7 z"
   clip-path="url(#SVGID_28_)"
   id="path769"
   inkscape:connector-curvature="0"
   style="fill:none;stroke:#FFFFFF;stroke-width:0.106;stroke-miterlimit:10" />
	<path
   class="st15"
   d="m 13.8,4 c 0,0 0,0.1 -0.1,0.1 -0.2,0 -0.3,0 -0.5,-0.3 C 12.6,3.2 12.7,3.1 12.7,3 c 0,0 0.1,-0.2 0.4,0.1 0,0.1 0.6,0.7 0.7,0.9 0,0 0,0 0,0 M 12.6,2.8 c -0.4,0.1 -0.3,0.4 -0.3,0.5 0.1,0.2 0.6,0.8 0.9,1 C 13.6,4.5 14.1,4.2 14,3.9 14,3.6 13.5,3 13.4,3 13.2,2.8 12.9,2.7 12.6,2.8"
   clip-path="url(#SVGID_28_)"
   id="path771"
   inkscape:connector-curvature="0"
   style="fill:#FFFFFF" />
	<path
   class="st16"
   d="m 13.8,4 c 0,0 0,0.1 -0.1,0.1 -0.2,0 -0.3,0 -0.5,-0.3 C 12.6,3.2 12.7,3.1 12.7,3 c 0,0 0.1,-0.2 0.4,0.1 0,0.1 0.6,0.7 0.7,0.9 0,0 0,0 0,0 z M 12.6,2.8 c -0.4,0.1 -0.3,0.4 -0.3,0.5 0.1,0.2 0.6,0.8 0.9,1 C 13.6,4.5 14.1,4.2 14,3.9 14,3.6 13.5,3 13.4,3 13.2,2.8 12.9,2.7 12.6,2.8 Z"
   clip-path="url(#SVGID_28_)"
   id="path773"
   inkscape:connector-curvature="0"
   style="fill:none;stroke:#FFFFFF;stroke-width:0.106;stroke-miterlimit:10" />
	<path
   class="st15"
   d="m 8.7,7.9 c 0,0 0,0 0,0 0,0.1 0,0.2 -0.1,0.2 C 8.5,8.1 8.3,8.2 7.4,7.7 7.1,7.5 6.9,7.3 7,7.1 7.1,7 7.2,7 7.5,7.2 c 0,0 1.1,0.4 1.2,0.7 M 7,6.8 C 6,7.4 7.3,8.2 8,8.4 8.8,8.6 9.1,8 9,7.8 9,7.4 7.6,6.5 7,6.8"
   clip-path="url(#SVGID_28_)"
   id="path775"
   inkscape:connector-curvature="0"
   style="fill:#FFFFFF" />
	<path
   class="st21"
   d="m 8.7,7.9 c 0,0 0,0 0,0 0,0.1 0,0.2 -0.1,0.2 C 8.5,8.1 8.3,8.2 7.4,7.7 7.1,7.5 6.9,7.3 7,7.1 7.1,7 7.2,7 7.5,7.2 c 0,0 1.1,0.4 1.2,0.7 z M 7,6.8 C 6,7.4 7.3,8.2 8,8.4 8.8,8.6 9.1,8 9,7.8 9,7.4 7.6,6.5 7,6.8 Z"
   clip-path="url(#SVGID_28_)"
   id="path777"
   inkscape:connector-curvature="0"
   style="fill:none;stroke:#FFFFFF;stroke-width:0.211;stroke-miterlimit:10" />
</g><polygon
     style="fill:#FFFFFF"
     class="st1"
     points="23.5,2.5 23.6,3.4 23.9,3.5 23.6,2.4 23.3,2.3 23.3,2.4 "
     id="polygon781"
     transform="matrix(1.3541916,0,0,1.3541916,16.129054,-14.855629)" /><g
     id="g797"
     transform="matrix(1.3541916,0,0,1.3541916,16.129054,-14.855629)">
	<defs
   id="defs784">
		<rect
   id="SVGID_29_"
   x="0.1"
   y="0.2"
   width="59.400002"
   height="34" />
	</defs>
	<clipPath
   id="SVGID_30_">
		<use
   xlink:href="#SVGID_29_"
   style="overflow:visible"
   id="use786"
   x="0"
   y="0"
   width="100%"
   height="100%" />
	</clipPath>
	<path
   class="st22"
   d="M 18.4,1.6 C 18.6,2 18.8,2.5 19,2.9 h 0.3 C 19.1,2.5 18.8,1.9 18.6,1.4 h -0.5 l 0.1,0.2 z"
   clip-path="url(#SVGID_30_)"
   id="path789"
   inkscape:connector-curvature="0"
   style="fill:#FFFFFF" />
	<path
   class="st22"
   d="m 25.1,3.1 c 0,-0.1 0.1,0 0.2,0.1 0.1,0.1 0.2,0.7 0,0.7 -0.1,0 -0.1,-0.1 -0.2,-0.2 0,-0.1 -0.1,-0.5 0,-0.6 m -0.2,0.6 c 0.1,0.2 0.2,0.3 0.4,0.4 0.4,0.1 0.2,-0.7 0.1,-0.8 0,0 0,0 0,0 C 25.3,3.1 25.1,3 24.9,3.1 c -0.2,0 0,0.6 0,0.6"
   clip-path="url(#SVGID_30_)"
   id="path791"
   inkscape:connector-curvature="0"
   style="fill:#FFFFFF" />
	<path
   class="st22"
   d="m 21.6,2.9 c -0.1,0 -0.2,-0.1 -0.2,-0.2 0,0 -0.3,-0.7 -0.2,-0.8 0,0 0.1,0 0.2,0.1 0.1,0 0.4,0.8 0.2,0.9 m 0.1,-0.8 c 0,0 0,0 0,0 C 21.4,1.7 21.1,1.7 21,1.8 c -0.1,0 -0.2,0.1 0.1,0.8 0.1,0.1 0.2,0.4 0.5,0.4 0.7,0.2 0.1,-0.9 0.1,-0.9"
   clip-path="url(#SVGID_30_)"
   id="path793"
   inkscape:connector-curvature="0"
   style="fill:#FFFFFF" />
	<path
   class="st22"
   d="m 26.5,4.6 c 0,0 -0.1,0 -0.1,-0.2 0,-0.1 0,-0.5 0,-0.5 0,-0.1 0.1,0 0.2,0.1 0,0.1 0,0.6 -0.1,0.6 M 26.3,3.8 c -0.1,0.1 -0.1,0.5 -0.1,0.6 0.1,0.2 0.3,0.3 0.4,0.3 0.2,0 0.2,-0.5 0.1,-0.7 0,0 -0.2,-0.3 -0.4,-0.2"
   clip-path="url(#SVGID_30_)"
   id="path795"
   inkscape:connector-curvature="0"
   style="fill:#FFFFFF" />
</g><polygon
     style="fill:#FFFFFF"
     class="st1"
     points="27.6,4.9 27.5,5.4 27.6,5.5 27.7,4.9 27.5,4.8 27.5,4.9 "
     id="polygon799"
     transform="matrix(1.3541916,0,0,1.3541916,16.129054,-14.855629)" /><polygon
     style="fill:#FFFFFF"
     class="st1"
     points="6.3,28.3 6.1,28.1 4.8,29 5.2,29.4 5.3,29.3 5.2,29.1 "
     id="polygon801"
     transform="matrix(1.3541916,0,0,1.3541916,16.129054,-14.855629)" /><polygon
     style="fill:#FFFFFF"
     class="st1"
     points="2.3,9.7 2.4,9.5 3.7,9.9 3.8,9.7 2.4,9.3 2.1,9.7 "
     id="polygon803"
     transform="matrix(1.3541916,0,0,1.3541916,16.129054,-14.855629)" /><g
     id="g813"
     transform="matrix(1.3541916,0,0,1.3541916,16.129054,-14.855629)">
	<defs
   id="defs806">
		<rect
   id="SVGID_31_"
   x="0.1"
   y="0.2"
   width="59.400002"
   height="34" />
	</defs>
	<clipPath
   id="SVGID_32_">
		<use
   xlink:href="#SVGID_31_"
   style="overflow:visible"
   id="use808"
   x="0"
   y="0"
   width="100%"
   height="100%" />
	</clipPath>
	<path
   class="st23"
   d="m 0.4,18.1 c 0,-0.2 0.3,-0.2 0.7,-0.2 0.4,-0.1 0.6,0 0.6,0.1 0,0 0,0.1 0,0.1 0,0.1 -0.1,0.1 -0.1,0.1 -0.3,0.1 -1,0.2 -1,0.2 C 0.4,18.3 0.4,18.2 0.4,18.1 m 0.4,0.5 C 1.6,18.6 2,18.4 1.9,17.9 1.8,17.3 0.6,17.6 0.3,17.8 0.1,18.1 0.1,18.7 0.8,18.6"
   clip-path="url(#SVGID_32_)"
   id="path811"
   inkscape:connector-curvature="0"
   style="fill:#FFFFFF" />
</g><polygon
     style="fill:#FFFFFF"
     class="st1"
     points="0.5,15.4 0.6,15.2 2,15.3 2.1,15 0.4,14.9 0.3,15.4 "
     id="polygon815"
     transform="matrix(1.3541916,0,0,1.3541916,16.129054,-14.855629)" /><g
     id="g825"
     transform="matrix(1.3541916,0,0,1.3541916,16.129054,-14.855629)">
	<defs
   id="defs818">
		<rect
   id="SVGID_33_"
   x="0.1"
   y="0.2"
   width="59.400002"
   height="34" />
	</defs>
	<clipPath
   id="SVGID_34_">
		<use
   xlink:href="#SVGID_33_"
   style="overflow:visible"
   id="use820"
   x="0"
   y="0"
   width="100%"
   height="100%" />
	</clipPath>
	<path
   class="st24"
   d="M 1.3,12.2 C 1.3,12 1.5,12 1.6,12 c 0,0 0.7,0.1 0.9,0.2 0,0 0,0.1 0,0.1 0,0 0,0.1 -0.1,0.1 -0.1,0.1 -0.5,0 -0.9,-0.1 -0.3,0 -0.3,-0.1 -0.2,-0.1 M 2,12.8 c 0.6,0 0.7,-0.4 0.7,-0.5 0,-0.3 -0.2,-0.4 -0.4,-0.4 -0.3,-0.1 -0.8,-0.2 -1,0 -0.1,0 -0.8,0.8 0.7,0.9"
   clip-path="url(#SVGID_34_)"
   id="path823"
   inkscape:connector-curvature="0"
   style="fill:#FFFFFF" />
</g><polygon
     style="fill:#FFFFFF"
     class="st1"
     points="3.2,23.6 1.6,24.2 1.8,24.6 2,24.6 1.9,24.4 3.3,23.8 "
     id="polygon827"
     transform="matrix(1.3541916,0,0,1.3541916,16.129054,-14.855629)" /><g
     id="g839"
     transform="matrix(1.3541916,0,0,1.3541916,16.129054,-14.855629)">
	<defs
   id="defs830">
		<rect
   id="SVGID_35_"
   x="0.1"
   y="0.2"
   width="59.400002"
   height="34" />
	</defs>
	<clipPath
   id="SVGID_36_">
		<use
   xlink:href="#SVGID_35_"
   style="overflow:visible"
   id="use832"
   x="0"
   y="0"
   width="100%"
   height="100%" />
	</clipPath>
	<path
   class="st25"
   d="m 0.9,21.3 c 0,-0.1 0,-0.1 0.6,-0.3 0.3,0 0.5,-0.1 0.6,0 0,0 0,0.1 0,0.1 0,0.1 -0.1,0.1 -0.1,0.2 -0.2,0.1 -1.3,0.4 -1.1,0 m 0.2,0.5 c 0,0 1.4,-0.1 1.2,-0.8 -0.2,-0.7 -1.4,-0.1 -1.5,0 -0.3,0.3 -0.1,0.8 0.3,0.8"
   clip-path="url(#SVGID_36_)"
   id="path835"
   inkscape:connector-curvature="0"
   style="fill:#FFFFFF" />
	<path
   class="st25"
   d="m 4.4,26.3 v 0 c 0,0.1 -0.1,0.2 -0.3,0.3 0,0 -0.5,0.3 -0.6,0.3 -0.3,0 -0.2,-0.2 -0.2,-0.2 0,-0.2 0.7,-0.5 0.7,-0.5 0.2,-0.1 0.3,-0.1 0.4,0.1 0,-0.1 0,0 0,0 m 0.2,0 c -0.2,-0.7 -1,-0.2 -1.3,0 -0.6,0.4 -0.1,0.8 0.1,0.9 0.3,0 1.4,-0.5 1.2,-0.9"
   clip-path="url(#SVGID_36_)"
   id="path837"
   inkscape:connector-curvature="0"
   style="fill:#FFFFFF" />
</g><polygon
     style="fill:#FFFFFF"
     class="st1"
     points="9.2,32.4 9.6,32.6 9.7,32.5 9.5,32.4 10.3,31.5 10.1,31.4 "
     id="polygon841"
     transform="matrix(1.3541916,0,0,1.3541916,16.129054,-14.855629)" /><g
     id="g853"
     transform="matrix(1.3541916,0,0,1.3541916,16.129054,-14.855629)">
	<defs
   id="defs844">
		<rect
   id="SVGID_37_"
   x="0.1"
   y="0.2"
   width="59.400002"
   height="34" />
	</defs>
	<clipPath
   id="SVGID_38_">
		<use
   xlink:href="#SVGID_37_"
   style="overflow:visible"
   id="use846"
   x="0"
   y="0"
   width="100%"
   height="100%" />
	</clipPath>
	<path
   class="st26"
   d="m 8,30.2 c 0,0.2 -0.5,0.6 -0.6,0.7 -0.2,0.1 -0.3,0 -0.2,-0.1 0,-0.2 0.5,-0.5 0.6,-0.6 0.1,-0.2 0.2,0 0.2,0 0,0 0,0 0,0 M 7.5,30 C 6.6,30.6 6.9,31 7.3,31.1 7.6,31.2 7.8,31 8,30.7 8.2,30.5 8.3,30.3 8.2,30.2 8.2,30.2 8,29.7 7.5,30"
   clip-path="url(#SVGID_38_)"
   id="path849"
   inkscape:connector-curvature="0"
   style="fill:#FFFFFF" />
	<path
   class="st26"
   d="M 4,7 C 4,7 4.1,6.9 4.2,6.9 4.4,7 4.9,7.2 5,7.3 c 0,0.1 0,0.1 0,0.1 0,0 0,0 -0.1,0 C 4.8,7.4 4.7,7.5 4.3,7.3 4.1,7.3 3.9,7.2 4,7 M 4.6,7.7 C 5.1,7.8 5.3,7.4 5.3,7.3 5.3,7.1 5,7 4.6,6.8 4.3,6.7 4.1,6.7 4,6.8 3.8,6.9 3.7,7.1 3.8,7.3 4,7.6 4.6,7.7 4.6,7.7"
   clip-path="url(#SVGID_38_)"
   id="path851"
   inkscape:connector-curvature="0"
   style="fill:#FFFFFF" />
</g><polygon
     style="fill:#FFFFFF"
     class="st1"
     points="14,34.1 14.4,34.2 14.4,34.1 14.3,34.1 14.6,33.3 14.4,33.2 "
     id="polygon855"
     transform="matrix(1.3541916,0,0,1.3541916,16.129054,-14.855629)" /><g
     id="g867"
     transform="matrix(1.3541916,0,0,1.3541916,16.129054,-14.855629)">
	<defs
   id="defs858">
		<rect
   id="SVGID_39_"
   x="0.1"
   y="0.2"
   width="59.400002"
   height="34" />
	</defs>
	<clipPath
   id="SVGID_40_">
		<use
   xlink:href="#SVGID_39_"
   style="overflow:visible"
   id="use860"
   x="0"
   y="0"
   width="100%"
   height="100%" />
	</clipPath>
	<path
   class="st27"
   d="m 11.9,33.4 c -0.1,0 -0.3,0 -0.2,-0.2 0.3,-0.6 0.5,-0.7 0.6,-0.5 0.1,0.1 -0.2,0.6 -0.4,0.7 M 12,32.5 c -0.3,0.1 -0.5,0.6 -0.5,0.7 0,0.2 0,0.3 0.2,0.4 0.2,0.1 0.4,0 0.5,-0.1 0,0 0.4,-0.5 0.3,-0.8 0,-0.2 -0.3,-0.3 -0.5,-0.2"
   clip-path="url(#SVGID_40_)"
   id="path863"
   inkscape:connector-curvature="0"
   style="fill:#FFFFFF" />
	<path
   class="st27"
   d="m 6,4.8 c 0,-0.1 0.1,-0.1 0.3,0 0,0 0.5,0.3 0.6,0.5 0,0 0,0.1 0,0.1 0,0 0,0 -0.1,0.1 C 6.7,5.5 6.6,5.5 6.3,5.3 6,5 5.9,4.9 6,4.8 M 6.5,5.6 C 6.9,5.7 7.1,5.4 7.1,5.3 7.1,5.2 7.1,5 6.5,4.7 6.3,4.5 6.1,4.6 6,4.6 5.3,5 6.4,5.6 6.5,5.6"
   clip-path="url(#SVGID_40_)"
   id="path865"
   inkscape:connector-curvature="0"
   style="fill:#FFFFFF" />
</g><polygon
     style="fill:#FFFFFF"
     class="st1"
     points="8.9,3.9 9.1,3.8 8.2,2.9 7.8,3.2 7.9,3.3 8.1,3.2 "
     id="polygon869"
     transform="matrix(1.3541916,0,0,1.3541916,16.129054,-14.855629)" /><polygon
     style="fill:#FFFFFF"
     class="st1"
     points="10.9,2.7 11.1,2.6 10.3,1.7 10,1.9 10.1,2 10.2,1.9 "
     id="polygon871"
     transform="matrix(1.3541916,0,0,1.3541916,16.129054,-14.855629)" /><g
     id="g881"
     transform="matrix(1.3541916,0,0,1.3541916,16.129054,-14.855629)">
	<defs
   id="defs874">
		<rect
   id="SVGID_41_"
   x="0.1"
   y="0.2"
   width="59.400002"
   height="34" />
	</defs>
	<clipPath
   id="SVGID_42_">
		<use
   xlink:href="#SVGID_41_"
   style="overflow:visible"
   id="use876"
   x="0"
   y="0"
   width="100%"
   height="100%" />
	</clipPath>
	<path
   class="st28"
   d="m 12.7,1.1 c 0.2,-0.2 0.5,0.4 0.5,0.5 0,0.1 0,0.1 -0.1,0.1 C 13,1.7 13,1.7 12.8,1.6 12.7,1.1 12.7,1.1 12.7,1.1 M 13,1.8 c 0.2,0.1 0.5,0 0.5,-0.3 0,-0.1 -0.2,-0.4 -0.4,-0.5 -0.2,-0.1 -0.4,-0.1 -0.4,0 -0.1,0 -0.2,0.1 -0.1,0.3 0,0 0.1,0.4 0.4,0.5"
   clip-path="url(#SVGID_42_)"
   id="path879"
   inkscape:connector-curvature="0"
   style="fill:#FFFFFF" />
</g><polygon
     style="fill:#FFFFFF"
     class="st1"
     points="18.7,0.5 18.9,1.1 19.1,1.1 18.8,0.4 18.5,0.4 18.6,0.5 "
     id="polygon883"
     transform="matrix(1.3541916,0,0,1.3541916,16.129054,-14.855629)" /><g
     id="g893"
     transform="matrix(1.3541916,0,0,1.3541916,16.129054,-14.855629)">
	<defs
   id="defs886">
		<rect
   id="SVGID_43_"
   x="0.1"
   y="0.2"
   width="59.400002"
   height="34" />
	</defs>
	<clipPath
   id="SVGID_44_">
		<use
   xlink:href="#SVGID_43_"
   style="overflow:visible"
   id="use888"
   x="0"
   y="0"
   width="100%"
   height="100%" />
	</clipPath>
	<path
   class="st29"
   d="m 16.7,0.4 c 0,0 0.1,-0.1 0.3,0.1 0.1,0.1 0.2,0.3 0.2,0.4 0,0.1 0,0.1 0,0.1 -0.3,0 -0.5,-0.6 -0.5,-0.6 m 0.2,0.7 c 0.1,0 0.3,0 0.4,-0.1 0,-0.1 0,-0.2 -0.1,-0.4 0,0 0,-0.1 -0.1,-0.1 -0.2,-0.3 -0.5,-0.2 -0.6,-0.2 -0.1,0 -0.1,0.1 0,0.3 0.1,0.2 0.2,0.4 0.4,0.5"
   clip-path="url(#SVGID_44_)"
   id="path891"
   inkscape:connector-curvature="0"
   style="fill:#FFFFFF" />
</g><polygon
     style="fill:#FFFFFF"
     class="st1"
     points="15.1,1.3 15.3,1.3 14.8,0.5 14.5,0.5 14.6,0.6 14.7,0.6 "
     id="polygon895"
     transform="matrix(1.3541916,0,0,1.3541916,16.129054,-14.855629)" /><g
     id="g905"
     transform="matrix(1.3541916,0,0,1.3541916,16.129054,-14.855629)">
	<defs
   id="defs898">
		<rect
   id="SVGID_45_"
   x="0.1"
   y="0.2"
   width="59.400002"
   height="34" />
	</defs>
	<clipPath
   id="SVGID_46_">
		<use
   xlink:href="#SVGID_45_"
   style="overflow:visible"
   id="use900"
   x="0"
   y="0"
   width="100%"
   height="100%" />
	</clipPath>
	<path
   class="st30"
   d="m 20.3,0.7 c 0,0 0.1,0 0.2,0.1 0,0.1 0.1,0.3 0.1,0.3 0,0.1 0,0.1 0,0.1 0,0 -0.1,0 -0.2,-0.1 0,0 -0.1,-0.3 -0.1,-0.4 m 0.2,0.6 c 0.1,0.1 0.4,0.1 0.2,-0.4 0,-0.1 0,-0.1 -0.1,-0.1 -0.1,-0.1 -0.3,-0.2 -0.4,-0.2 -0.1,0 -0.1,0.1 0,0.4 0.1,0.1 0.1,0.2 0.3,0.3"
   clip-path="url(#SVGID_46_)"
   id="path903"
   inkscape:connector-curvature="0"
   style="fill:#FFFFFF" />
</g><polygon
     style="fill:#FFFFFF"
     class="st1"
     points="27,3.5 27,3.9 27.1,4 27.1,3.5 27,3.4 "
     id="polygon907"
     transform="matrix(1.3541916,0,0,1.3541916,16.129054,-14.855629)" /><g
     id="g917"
     transform="matrix(1.3541916,0,0,1.3541916,16.129054,-14.855629)">
	<defs
   id="defs910">
		<rect
   id="SVGID_47_"
   x="0.1"
   y="0.2"
   width="59.400002"
   height="34" />
	</defs>
	<clipPath
   id="SVGID_48_">
		<use
   xlink:href="#SVGID_47_"
   style="overflow:visible"
   id="use912"
   x="0"
   y="0"
   width="100%"
   height="100%" />
	</clipPath>
	<path
   class="st31"
   d="m 26,3.2 c 0,0 -0.1,0 -0.1,-0.1 0,-0.1 0,-0.3 0,-0.3 0,0 0.1,0 0.1,0.1 0,0 0.1,0.3 0,0.3 M 25.8,2.7 c -0.1,0.1 0,0.3 0,0.4 0.1,0.1 0.2,0.2 0.3,0.2 0.1,0 0.1,-0.3 0,-0.4 0,0 -0.2,-0.2 -0.3,-0.2"
   clip-path="url(#SVGID_48_)"
   id="path915"
   inkscape:connector-curvature="0"
   style="fill:#FFFFFF" />
</g><polygon
     style="fill:#FFFFFF"
     class="st1"
     points="21.9,1 22,1.6 22.2,1.7 22,1 21.8,0.9 21.8,1 "
     id="polygon919"
     transform="matrix(1.3541916,0,0,1.3541916,16.129054,-14.855629)" /><g
     id="g929"
     transform="matrix(1.3541916,0,0,1.3541916,16.129054,-14.855629)">
	<defs
   id="defs922">
		<rect
   id="SVGID_49_"
   x="0.1"
   y="0.2"
   width="59.400002"
   height="34" />
	</defs>
	<clipPath
   id="SVGID_50_">
		<use
   xlink:href="#SVGID_49_"
   style="overflow:visible"
   id="use924"
   x="0"
   y="0"
   width="100%"
   height="100%" />
	</clipPath>
	<path
   class="st32"
   d="m 23.5,1.7 c 0,0 0.1,0 0.1,0 0,0 0.1,0.3 0,0.4 0,0 -0.1,0 -0.1,-0.1 0,-0.1 -0.1,-0.3 0,-0.3 m 0.1,0.4 c 0.3,0.1 0.1,-0.3 0.1,-0.3 0,0 0,-0.1 -0.1,-0.1 -0.1,-0.1 -0.2,-0.1 -0.3,-0.1 -0.1,0.1 0,0.3 0,0.3 0.1,0.1 0.2,0.2 0.3,0.2"
   clip-path="url(#SVGID_50_)"
   id="path927"
   inkscape:connector-curvature="0"
   style="fill:#FFFFFF" />
</g><polygon
     style="fill:#FFFFFF"
     class="st1"
     points="24.7,2.2 24.7,2.6 24.9,2.7 24.8,2.2 24.6,2.1 "
     id="polygon931"
     transform="matrix(1.3541916,0,0,1.3541916,16.129054,-14.855629)" /><g
     id="g941"
     transform="matrix(1.3541916,0,0,1.3541916,16.129054,-14.855629)">
	<defs
   id="defs934">
		<rect
   id="SVGID_51_"
   x="0.1"
   y="0.2"
   width="59.400002"
   height="34" />
	</defs>
	<clipPath
   id="SVGID_52_">
		<use
   xlink:href="#SVGID_51_"
   style="overflow:visible"
   id="use936"
   x="0"
   y="0"
   width="100%"
   height="100%" />
	</clipPath>
	<path
   class="st33"
   d="m 28.1,4.8 c 0,0 0,-0.1 0,0 -0.1,-0.1 -0.1,-0.3 0,-0.3 0,0 0.1,0 0.1,0 0,0 0,0.2 -0.1,0.3 M 28,4.4 c 0,0 0,0.2 0,0.2 0,0.1 0.2,0.2 0.2,0.2 0.1,0 0.1,-0.2 0.1,-0.3 -0.1,0 -0.2,-0.2 -0.3,-0.1"
   clip-path="url(#SVGID_52_)"
   id="path939"
   inkscape:connector-curvature="0"
   style="fill:#FFFFFF" />
</g><polygon
     style="fill:#FFFFFF"
     class="st1"
     points="28.9,5.1 28.8,5.4 28.9,5.5 29,5.2 28.9,5 "
     id="polygon943"
     transform="matrix(1.3541916,0,0,1.3541916,16.129054,-14.855629)" /><polygon
     style="fill:#FFFFFF"
     class="st1"
     points="30.3,6.7 30.4,6.8 30.3,7 30.4,6.8 "
     id="polygon945"
     transform="matrix(1.3541916,0,0,1.3541916,16.129054,-14.855629)" /><g
     id="g957"
     transform="matrix(1.3541916,0,0,1.3541916,16.129054,-14.855629)">
	<defs
   id="defs948">
		<rect
   id="SVGID_53_"
   x="0.1"
   y="0.2"
   width="59.400002"
   height="34" />
	</defs>
	<clipPath
   id="SVGID_54_">
		<use
   xlink:href="#SVGID_53_"
   style="overflow:visible"
   id="use950"
   x="0"
   y="0"
   width="100%"
   height="100%" />
	</clipPath>
	<path
   class="st34"
   d="m 29.7,6.2 c -0.1,0 -0.1,0 0,0 -0.1,-0.1 0,-0.2 0,-0.3 0,-0.1 0.1,0 0.1,0 0,0.1 -0.1,0.3 -0.1,0.3 M 29.6,5.8 c 0,0 -0.1,0.2 -0.1,0.3 0,0.1 0.1,0.2 0.2,0.2 0.1,0 0.1,-0.2 0.1,-0.3 0,0 -0.1,-0.2 -0.2,-0.2"
   clip-path="url(#SVGID_54_)"
   id="path953"
   inkscape:connector-curvature="0"
   style="fill:#FFFFFF" />
	<path
   class="st34"
   d="m 55.8,8.4 c 0.9,0 1.5,-0.7 1.5,-1.5 0,-0.9 -0.6,-1.5 -1.5,-1.5 -0.9,0 -1.5,0.7 -1.5,1.5 0,0.8 0.6,1.5 1.5,1.5 z m -4.6,0 c 0.8,0 1.5,-0.7 1.5,-1.5 0,-0.9 -0.6,-1.5 -1.5,-1.5 -0.9,0 -1.5,0.7 -1.5,1.5 0,0.8 0.7,1.5 1.5,1.5 z m -3.9,0.9 v 8.3 c 0,4.7 2.2,6.8 5.9,6.8 3.9,0 6.2,-2.2 6.2,-6.8 V 9.3 H 56 v 8.5 c 0,2.6 -1,3.9 -2.7,3.9 -1.7,0 -2.7,-1.3 -2.7,-3.9 V 9.3 Z M 35.7,24.2 h 3.4 v -6 h 5.3 V 15.5 H 39.1 V 12 h 5.7 V 9.3 h -9.1 z m -6.3,0 h 3.4 V 9.3 h -3.4 z m -13.5,0 h 3.3 v -4.9 l 1.3,-1.6 3.7,6.4 H 28 l -5.2,-8.5 4.9,-6.3 h -4.1 l -3.4,4.9 c -0.4,0.5 -0.7,1.1 -1,1.6 v 0 -6.5 h -3.3 z"
   clip-path="url(#SVGID_54_)"
   id="path955"
   inkscape:connector-curvature="0"
   style="fill:#FFFFFF" />
</g></g></svg>
