<?xml version="1.0" encoding="utf-8"?>
<!-- Generator: Adobe Illustrator 21.0.0, SVG Export Plug-In . SVG Version: 6.00 Build 0)  -->
<svg version="1.1" id="Réteg_1" xmlns="http://www.w3.org/2000/svg" xmlns:xlink="http://www.w3.org/1999/xlink" x="0px" y="0px"
	 width="59.8px" height="34.8px" viewBox="0 0 59.8 34.8" style="enable-background:new 0 0 59.8 34.8;" xml:space="preserve">
<style type="text/css">
	.st0{display:none;}
	.st1{fill:#FFFFFF;}
	.st2{clip-path:url(#SVGID_2_);fill:#FFFFFF;}
	.st3{clip-path:url(#SVGID_4_);fill:#FFFFFF;}
	.st4{clip-path:url(#SVGID_6_);fill:#FFFFFF;}
	.st5{clip-path:url(#SVGID_8_);fill:#FFFFFF;}
	.st6{clip-path:url(#SVGID_10_);fill:#FFFFFF;}
	.st7{clip-path:url(#SVGID_12_);fill:#FFFFFF;}
	.st8{clip-path:url(#SVGID_14_);fill:#FFFFFF;}
	.st9{clip-path:url(#SVGID_16_);fill:#FFFFFF;}
	.st10{clip-path:url(#SVGID_18_);fill:#FFFFFF;}
	.st11{clip-path:url(#SVGID_20_);fill:#FFFFFF;}
	.st12{clip-path:url(#SVGID_22_);fill:#FFFFFF;}
	.st13{clip-path:url(#SVGID_24_);fill:#FFFFFF;}
	.st14{clip-path:url(#SVGID_26_);fill:#FFFFFF;}
	.st15{clip-path:url(#SVGID_28_);fill:#FFFFFF;}
	.st16{clip-path:url(#SVGID_28_);fill:none;stroke:#FFFFFF;stroke-width:0.106;stroke-miterlimit:10;}
	.st17{clip-path:url(#SVGID_28_);fill:none;stroke:#FFFFFF;stroke-width:0.317;stroke-miterlimit:10;}
	.st18{clip-path:url(#SVGID_28_);fill:none;stroke:#FFFFFF;stroke-width:0.423;stroke-miterlimit:10;}
	.st19{clip-path:url(#SVGID_28_);fill:none;stroke:#FFFFFF;stroke-width:0.431;stroke-miterlimit:10;}
	.st20{clip-path:url(#SVGID_28_);fill:none;stroke:#FFFFFF;stroke-width:0.427;stroke-miterlimit:10;}
	.st21{clip-path:url(#SVGID_28_);fill:none;stroke:#FFFFFF;stroke-width:0.211;stroke-miterlimit:10;}
	.st22{clip-path:url(#SVGID_30_);fill:#FFFFFF;}
	.st23{clip-path:url(#SVGID_32_);fill:#FFFFFF;}
	.st24{clip-path:url(#SVGID_34_);fill:#FFFFFF;}
	.st25{clip-path:url(#SVGID_36_);fill:#FFFFFF;}
	.st26{clip-path:url(#SVGID_38_);fill:#FFFFFF;}
	.st27{clip-path:url(#SVGID_40_);fill:#FFFFFF;}
	.st28{clip-path:url(#SVGID_42_);fill:#FFFFFF;}
	.st29{clip-path:url(#SVGID_44_);fill:#FFFFFF;}
	.st30{clip-path:url(#SVGID_46_);fill:#FFFFFF;}
	.st31{clip-path:url(#SVGID_48_);fill:#FFFFFF;}
	.st32{clip-path:url(#SVGID_50_);fill:#FFFFFF;}
	.st33{clip-path:url(#SVGID_52_);fill:#FFFFFF;}
	.st34{clip-path:url(#SVGID_54_);fill:#FFFFFF;}
</style>
<rect x="-0.4" y="-0.5" class="st0" width="60.8" height="35"/>
<polygon class="st1" points="25.5,27.5 25.5,28.1 25.7,28.1 25.7,28 25.6,28 25.6,27.5 "/>
<g>
	<defs>
		<rect id="SVGID_1_" x="0.1" y="0.2" width="59.4" height="34"/>
	</defs>
	<clipPath id="SVGID_2_">
		<use xlink:href="#SVGID_1_"  style="overflow:visible;"/>
	</clipPath>
	<path class="st2" d="M21.3,28.6L21.3,28.6c0,0,0,0.4-0.2,0.5c-0.1,0.1,0-0.3,0-0.4C21.2,28.6,21.2,28.6,21.3,28.6
		C21.3,28.5,21.3,28.5,21.3,28.6C21.3,28.6,21.3,28.6,21.3,28.6 M21.2,28.5c-0.1,0.1-0.2,0.3-0.2,0.5c0,0.1,0,0.2,0.1,0.2
		c0.3,0,0.3-0.5,0.3-0.6C21.4,28.4,21.3,28.4,21.2,28.5"/>
	<path class="st2" d="M24.2,28.2c0,0.1,0,0.4-0.1,0.4c0,0-0.1,0-0.1-0.1c0,0,0-0.3,0-0.4C24.1,28.1,24.2,28,24.2,28.2
		C24.2,28.1,24.2,28.1,24.2,28.2 M24.1,28C24,28.1,24,28.1,24,28.4c0,0.1,0,0.3,0.1,0.3c0.2,0,0.2-0.2,0.2-0.5
		C24.3,27.9,24.1,28,24.1,28"/>
</g>
<polygon class="st1" points="19.5,29.1 19.7,29.1 19.7,29.1 19.6,29.1 19.8,28.4 19.7,28.4 "/>
<polygon class="st1" points="22.7,28.3 22.6,29 22.8,29 22.8,28.9 22.7,28.9 22.8,28.3 "/>
<g>
	<defs>
		<rect id="SVGID_3_" x="0.1" y="0.2" width="59.4" height="34"/>
	</defs>
	<clipPath id="SVGID_4_">
		<use xlink:href="#SVGID_3_"  style="overflow:visible;"/>
	</clipPath>
	<path class="st3" d="M16.2,28.2c0,0,0.3-0.6,0.4-0.4c0,0,0,0,0,0C16.6,27.8,16.4,28.2,16.2,28.2C16.3,28.3,16.2,28.3,16.2,28.2
		 M16.2,28.4c0.1,0,0.2-0.1,0.3-0.1c0,0,0.3-0.3,0.3-0.5c0-0.1-0.2-0.1-0.3-0.1c-0.1,0.1-0.3,0.4-0.4,0.5
		C16.1,28.2,16.1,28.3,16.2,28.4"/>
	<path class="st3" d="M17.9,28.7C17.9,28.7,17.9,28.6,17.9,28.7c0.1-0.3,0.2-0.4,0.2-0.4c0-0.1,0.1,0,0.1,0c0,0,0,0,0,0
		c0,0,0,0.1,0,0.1l-0.1,0.1C18,28.7,18,28.8,18,28.8C17.9,28.8,17.9,28.8,17.9,28.7 M17.9,28.9c0.3,0.1,0.5-0.5,0.5-0.6
		c0-0.1-0.1-0.1-0.2-0.1c-0.2,0.1-0.3,0.5-0.3,0.5C17.8,28.8,17.8,28.9,17.9,28.9"/>
</g>
<polygon class="st1" points="9.7,22 9.8,22.2 9.9,22.2 9.8,22.1 10.7,21.8 10.6,21.6 "/>
<g>
	<defs>
		<rect id="SVGID_5_" x="0.1" y="0.2" width="59.4" height="34"/>
	</defs>
	<clipPath id="SVGID_6_">
		<use xlink:href="#SVGID_5_"  style="overflow:visible;"/>
	</clipPath>
	<path class="st4" d="M10.7,23.7c0,0,0-0.1,0.4-0.3c0.1,0,0.2-0.1,0.2,0c0,0,0,0,0,0c0,0.1-0.2,0.2-0.3,0.2
		C10.9,23.7,10.7,23.8,10.7,23.7 M11.5,23.4c0-0.1-0.1-0.3-0.5,0c-0.2,0.1-0.3,0.2-0.4,0.3c0,0.1,0,0.2,0.1,0.2
		C10.9,23.9,11.5,23.6,11.5,23.4"/>
</g>
<polygon class="st1" points="14.6,27.6 14.7,27.7 14.8,27.6 14.7,27.5 15.2,26.9 15.1,26.9 "/>
<polygon class="st1" points="12.5,24.7 11.7,25.3 11.9,25.4 11.9,25.4 11.9,25.3 12.5,24.8 "/>
<g>
	<defs>
		<rect id="SVGID_7_" x="0.1" y="0.2" width="59.4" height="34"/>
	</defs>
	<clipPath id="SVGID_8_">
		<use xlink:href="#SVGID_7_"  style="overflow:visible;"/>
	</clipPath>
	<path class="st5" d="M13.2,26.5c0-0.1,0.5-0.5,0.5-0.4c0,0,0,0,0,0c0,0.1-0.3,0.4-0.4,0.4C13.2,26.6,13.2,26.5,13.2,26.5
		 M13.2,26.6c0.2,0,0.7-0.4,0.6-0.6c0,0-0.1-0.2-0.3-0.1C13,26.3,12.9,26.6,13.2,26.6"/>
</g>
<polygon class="st1" points="8.9,16.2 9,16.2 9,16.1 9.9,16.1 9.9,16 8.9,15.9 "/>
<g>
	<defs>
		<rect id="SVGID_9_" x="0.1" y="0.2" width="59.4" height="34"/>
	</defs>
	<clipPath id="SVGID_10_">
		<use xlink:href="#SVGID_9_"  style="overflow:visible;"/>
	</clipPath>
	<path class="st6" d="M9.7,18C9.7,18,9.7,18.1,9.7,18c-0.2,0.1-0.6,0.1-0.6,0.1c-0.1,0-0.2,0-0.1-0.1c0-0.1,0.2-0.1,0.4-0.1
		C9.6,17.9,9.7,17.9,9.7,18C9.7,18,9.7,18,9.7,18 M9.8,18c-0.1-0.3-0.8-0.1-0.9,0C8.7,18,8.7,18.2,9,18.3C9,18.3,9.9,18.3,9.8,18"/>
	<path class="st6" d="M9.4,14c0.1-0.1,0.3,0,0.5,0c0.1,0,0.2,0.1,0.2,0.1c0,0,0,0,0,0c-0.1,0-0.3,0-0.4,0C9.6,14.1,9.3,14.1,9.4,14
		 M10.3,14.1c0-0.3-0.8-0.3-0.9-0.2c0,0-0.3,0.3,0.3,0.4C9.8,14.3,10.3,14.4,10.3,14.1"/>
	<path class="st6" d="M9.2,20.1c0,0,0-0.1,0.5-0.2c0.2,0,0.3-0.1,0.3,0c0,0,0,0,0,0c0,0,0,0.1-0.1,0.1C9.8,20.1,9.2,20.3,9.2,20.1
		 M10.1,19.9c-0.1-0.3-0.8,0-0.9,0c-0.2,0.1-0.1,0.3,0.1,0.4C9.4,20.3,10.2,20.2,10.1,19.9"/>
</g>
<polygon class="st1" points="9.9,12.2 10.1,12.2 10.1,12.2 10.9,12.4 11,12.3 10,12 "/>
<g>
	<defs>
		<rect id="SVGID_11_" x="0.1" y="0.2" width="59.4" height="34"/>
	</defs>
	<clipPath id="SVGID_12_">
		<use xlink:href="#SVGID_11_"  style="overflow:visible;"/>
	</clipPath>
	<path class="st7" d="M13,9.1C13,9.1,13,9.1,13,9.1c-0.1,0-0.1,0.1-0.4-0.1c-0.2-0.1-0.3-0.2-0.2-0.2c0,0,0.1,0,0.2,0
		C12.7,8.8,13,9,13,9.1C13,9.1,13,9.1,13,9.1 M13.1,9.1L13.1,9.1c0-0.1-0.2-0.3-0.4-0.4c-0.2-0.1-0.3-0.1-0.4-0.1
		c-0.4,0.2,0.3,0.5,0.4,0.6C13.1,9.3,13.1,9.2,13.1,9.1"/>
	<path class="st7" d="M11.1,10.4c0,0,0.1,0,0.2,0c0,0,0.4,0.2,0.5,0.2c0,0,0,0,0,0c0,0,0,0,0,0c0,0-0.1,0-0.4-0.1
		C11.2,10.5,11.1,10.4,11.1,10.4 M11.6,10.8c0.3,0.1,0.4-0.2,0.4-0.2c0-0.1-0.1-0.2-0.4-0.3c-0.1-0.1-0.3-0.1-0.4-0.1
		C10.8,10.4,11.2,10.7,11.6,10.8"/>
</g>
<polygon class="st1" points="13.7,7.5 13.7,7.6 13.8,7.5 14.4,8 14.5,7.9 13.8,7.4 "/>
<g>
	<defs>
		<rect id="SVGID_13_" x="0.1" y="0.2" width="59.4" height="34"/>
	</defs>
	<clipPath id="SVGID_14_">
		<use xlink:href="#SVGID_13_"  style="overflow:visible;"/>
	</clipPath>
	<path class="st8" d="M17.1,6c-0.3-0.3-0.2-0.4-0.2-0.4c0,0,0.1,0,0.1,0c0,0,0.2,0.3,0.3,0.4c0,0,0,0,0,0.1
		C17.3,6.1,17.2,6.1,17.1,6 M17.4,6c0,0-0.3-0.6-0.5-0.5c-0.3,0.1,0.2,0.6,0.3,0.6C17.3,6.2,17.5,6.2,17.4,6"/>
</g>
<polygon class="st1" points="15.2,6.4 15.2,6.5 15.3,6.4 15.8,7 15.9,6.9 15.3,6.3 "/>
<polygon class="st1" points="18.4,5 18.4,5.1 18.5,5.1 18.8,5.6 18.9,5.6 18.6,5 "/>
<g>
	<defs>
		<rect id="SVGID_15_" x="0.1" y="0.2" width="59.4" height="34"/>
	</defs>
	<clipPath id="SVGID_16_">
		<use xlink:href="#SVGID_15_"  style="overflow:visible;"/>
	</clipPath>
	<path class="st9" d="M20.4,5.2c-0.1,0-0.3-0.5-0.3-0.5c0,0,0.1,0,0.2,0.1C20.4,5.2,20.4,5.2,20.4,5.2 M20.1,4.7
		c-0.1,0-0.1,0.1,0,0.3c0.1,0.1,0.1,0.3,0.3,0.3c0.3,0.1,0.1-0.3,0.1-0.4C20.3,4.6,20.2,4.6,20.1,4.7"/>
	<path class="st9" d="M22.9,30c0-0.1,0.1-0.1,0.1-0.1c0,0,0,0.1,0,0.1c0,0,0,0.4-0.1,0.5C22.7,30.5,22.9,30,22.9,30 M23.1,29.9
		c0-0.3-0.2-0.1-0.3-0.1c-0.1,0.1-0.1,0.2-0.2,0.5c0,0.1,0,0.3,0.1,0.3C23.1,30.6,23.1,30.1,23.1,29.9"/>
	<path class="st9" d="M9.8,26.7c0-0.2,1-0.9,1.1-0.8c0,0,0,0.1,0,0.1c-0.1,0.2-0.8,0.7-0.9,0.7C9.8,26.9,9.8,26.7,9.8,26.7 M9.9,27
		c0.4,0.1,1.4-0.7,1.3-1c0,0-0.1-0.5-0.8-0.2C8.9,26.8,9.9,27,9.9,27"/>
	<path class="st9" d="M7.6,16.6C7.6,16.6,7.6,16.6,7.6,16.6c0,0.1,0,0.1-0.1,0.2c-0.2,0.1-1.6,0.2-1.4-0.1c0.1-0.1,0.3-0.1,0.8-0.2
		C7.6,16.5,7.6,16.6,7.6,16.6 M6.1,16.3c-0.2,0.2-0.3,0.7,0.4,0.8c0.4,0,1.5,0.1,1.4-0.5c0-0.3-0.4-0.4-0.5-0.4
		C7.4,16.2,6.5,16.1,6.1,16.3"/>
</g>
<polygon class="st1" points="6,19.3 6.2,19.3 6.2,19.1 7.9,18.8 7.9,18.5 6,18.8 "/>
<g>
	<defs>
		<rect id="SVGID_17_" x="0.1" y="0.2" width="59.4" height="34"/>
	</defs>
	<clipPath id="SVGID_18_">
		<use xlink:href="#SVGID_17_"  style="overflow:visible;"/>
	</clipPath>
	<path class="st10" d="M7.4,23.2c0-0.2,1.3-0.7,1.4-0.5c0,0,0,0,0,0c0,0.1-0.1,0.2-0.2,0.2C8.6,23,7.3,23.7,7.4,23.2 M7.5,23.6
		c0.3,0.1,1.6-0.4,1.5-0.9c-0.1-0.8-1.6,0.1-1.6,0.1C6.9,23.2,7.3,23.6,7.5,23.6"/>
</g>
<polygon class="st1" points="9.8,24.2 8.2,25.1 8.5,25.5 8.6,25.4 8.5,25.2 10,24.4 "/>
<polygon class="st1" points="6.2,14.7 6.4,14.7 6.4,14.5 8.1,14.7 8.2,14.5 6.3,14.3 "/>
<polygon class="st1" points="12.3,27 11.1,28.2 11.4,28.4 11.5,28.3 11.4,28.2 12.5,27.1 "/>
<g>
	<defs>
		<rect id="SVGID_19_" x="0.1" y="0.2" width="59.4" height="34"/>
	</defs>
	<clipPath id="SVGID_20_">
		<use xlink:href="#SVGID_19_"  style="overflow:visible;"/>
	</clipPath>
	<path class="st11" d="M8.5,12.6C8.5,12.6,8.5,12.6,8.5,12.6c0,0.1,0,0.1-0.1,0.1c-0.1,0-0.2,0.1-1.1-0.2c-0.3-0.1-0.3-0.2-0.3-0.2
		c0.1-0.1,0.3-0.1,0.6,0C8.5,12.4,8.5,12.5,8.5,12.6 M7.1,12c-0.2,0.1-0.6,0.7,0.9,0.9c0.8,0.1,0.8-0.4,0.8-0.4
		C8.7,12.1,7.4,11.8,7.1,12"/>
	<path class="st11" d="M6.6,21.1c0-0.2,1.3-0.5,1.4-0.4c0,0,0,0.1,0,0.1c0,0.1-0.1,0.1-0.1,0.2C7.8,21,6.5,21.5,6.6,21.1 M6.7,21.5
		c0.3,0,1.6-0.2,1.6-0.7c0-0.8-1.7,0-1.7,0C6.2,21.1,6.4,21.4,6.7,21.5"/>
	<path class="st11" d="M20.2,30.2c0,0.1-0.1,0.6-0.3,0.7c-0.2,0.1-0.1-0.3,0-0.6C20,30,20.2,30.1,20.2,30.2
		C20.2,30.2,20.2,30.2,20.2,30.2 M20,30c-0.2,0.1-0.3,0.5-0.3,0.7c0,0.2,0,0.3,0.1,0.3c0.1,0,0.2,0,0.4-0.2c0.1-0.1,0.2-0.5,0.2-0.7
		C20.3,29.9,20.1,30,20,30"/>
	<path class="st11" d="M16.5,30.6c-0.1,0-0.2,0-0.1-0.2c0-0.1,0.3-0.6,0.4-0.7c0.2-0.2,0.2-0.1,0.2,0c0,0,0,0,0,0
		C17,29.8,16.7,30.5,16.5,30.6 M17.2,29.6c0-0.2-0.3-0.2-0.5-0.1c-0.3,0.2-0.6,0.9-0.6,0.9c0,0.2,0,0.3,0.2,0.4
		c0.2,0.1,0.4-0.1,0.5-0.2C16.8,30.5,17.2,29.9,17.2,29.6"/>
</g>
<polygon class="st1" points="18.3,31 18.2,30.9 18.7,29.8 18.5,29.7 17.9,31.1 18.3,31.1 "/>
<polygon class="st1" points="21.6,29.9 21.4,31 21.6,30.9 21.7,30.8 21.6,30.8 21.8,29.9 "/>
<polygon class="st1" points="14.9,29.9 14.8,29.9 15.4,28.9 15.3,28.8 14.5,29.9 14.8,30 "/>
<g>
	<defs>
		<rect id="SVGID_21_" x="0.1" y="0.2" width="59.4" height="34"/>
	</defs>
	<clipPath id="SVGID_22_">
		<use xlink:href="#SVGID_21_"  style="overflow:visible;"/>
	</clipPath>
	<path class="st12" d="M13.8,28.3c0,0.1-0.5,0.8-0.7,0.9c-0.1,0.1-0.2,0-0.2-0.1C13,28.9,13.7,28,13.8,28.3
		C13.8,28.3,13.8,28.3,13.8,28.3 M14,28.3c0,0-0.1-0.4-0.6-0.1c-0.5,0.4-1.1,1.2-0.4,1.3C13.4,29.5,14.1,28.6,14,28.3"/>
	<path class="st12" d="M12.4,6.2c0.1,0,0.5,0.4,0.6,0.5c0,0,0,0.1,0,0.1c0,0,0,0-0.1,0c-0.1,0-0.2,0-0.4-0.2
		c-0.4-0.3-0.4-0.4-0.4-0.4C12.1,6.1,12.2,6,12.4,6.2 M11.9,6.4c0.1,0.2,0.5,0.5,0.8,0.6c0.3,0.1,0.5-0.1,0.5-0.3
		c0-0.2-0.7-0.8-1.1-0.7C11.9,6.1,11.9,6.2,11.9,6.4"/>
</g>
<polygon class="st1" points="9.6,8.6 10.7,9.2 10.9,9 9.6,8.3 9.4,8.6 9.5,8.7 "/>
<g>
	<defs>
		<rect id="SVGID_23_" x="0.1" y="0.2" width="59.4" height="34"/>
	</defs>
	<clipPath id="SVGID_24_">
		<use xlink:href="#SVGID_23_"  style="overflow:visible;"/>
	</clipPath>
	<path class="st13" d="M8.1,10.2c0.1-0.2,1.2,0.2,1.3,0.4c0,0,0,0.1,0,0.1c0,0,0,0-0.1,0.1c-0.1,0-0.2,0.1-1-0.2
		C8.2,10.4,8.1,10.3,8.1,10.2 M9,11c0.7,0.1,0.7-0.4,0.7-0.4c0-0.3-0.4-0.4-0.9-0.6c-0.5-0.2-0.7-0.1-0.8,0C7.5,10.3,8.2,10.8,9,11"
		/>
</g>
<polygon class="st1" points="11.8,8 11.9,7.9 10.7,7.1 10.5,7.4 10.6,7.4 10.7,7.3 "/>
<polygon class="st1" points="16.2,3.8 16.3,3.9 16.4,3.9 17,4.8 17.2,4.7 16.5,3.7 "/>
<g>
	<defs>
		<rect id="SVGID_25_" x="0.1" y="0.2" width="59.4" height="34"/>
	</defs>
	<clipPath id="SVGID_26_">
		<use xlink:href="#SVGID_25_"  style="overflow:visible;"/>
	</clipPath>
	<path class="st14" d="M15.6,5.2c-0.1,0-0.1,0-0.3-0.2C15,4.6,15,4.5,15,4.5c0.1-0.2,0.6,0.5,0.7,0.6C15.7,5.1,15.7,5.2,15.6,5.2
		 M15,4.3c-0.2,0.1-0.2,0.2-0.1,0.3c0.1,0.1,0.3,0.5,0.6,0.7c0.2,0.1,0.5,0,0.5-0.2C15.9,4.9,15.4,4.1,15,4.3"/>
	<path class="st14" d="M18.4,4.3c-0.1,0-0.2-0.1-0.2-0.2c-0.1-0.1-0.3-0.5-0.2-0.6c0-0.1,0.2,0,0.4,0.4C18.5,4.2,18.5,4.2,18.4,4.3
		 M17.8,3.4c-0.1,0.1-0.1,0.2,0,0.5c0.1,0.2,0.2,0.5,0.5,0.5c0.1,0,0.4,0,0.2-0.5C18.4,3.7,18.2,3.2,17.8,3.4"/>
</g>
<polygon class="st1" points="13.3,5.2 13.4,5.3 13.5,5.2 14.3,6 14.5,5.9 13.6,5 "/>
<polygon class="st1" points="22,3.3 22.1,3.3 22.4,4.2 22.5,4.2 22.3,3.3 22,3.2 "/>
<polygon class="st1" points="24.5,4 24.6,4 24.7,4.7 24.8,4.8 24.7,4 24.5,3.9 "/>
<polygon class="st1" points="19.9,4.2 19.5,3.2 19.2,3.2 19.2,3.3 19.3,3.3 19.7,4.2 "/>
<g>
	<defs>
		<rect id="SVGID_27_" x="0.1" y="0.2" width="59.4" height="34"/>
	</defs>
	<clipPath id="SVGID_28_">
		<use xlink:href="#SVGID_27_"  style="overflow:visible;"/>
	</clipPath>
	<path class="st15" d="M21.1,3.9c0,0.1,0,0.1,0,0.1c-0.1,0-0.2-0.1-0.2-0.2c0,0-0.2-0.5-0.2-0.6c0,0,0.1,0,0.2,0.1
		C21,3.4,21.1,3.7,21.1,3.9 M20.7,3.1c-0.1,0-0.2,0.1,0.1,0.6c0.1,0.2,0.2,0.3,0.4,0.3c0.5,0.1,0.1-0.6,0.1-0.7
		C21,3.1,20.7,3.1,20.7,3.1"/>
	<path class="st15" d="M23.7,4.4c0,0-0.1,0-0.1-0.1c0,0-0.1-0.4-0.1-0.5c0,0,0.1,0,0.1,0.1C23.7,3.8,23.8,4.3,23.7,4.4 M23.4,3.6
		c-0.1,0.1,0,0.6,0,0.6c0.1,0.2,0.2,0.3,0.3,0.3c0.3,0.1,0.1-0.6,0.1-0.6C23.7,3.6,23.5,3.6,23.4,3.6"/>
	<path class="st15" d="M15.8,32.6l0.4,0.1l0.1-0.1l-0.2,0c0.1-0.3,0.3-0.8,0.5-1.1l-0.2,0C16.1,31.7,15.9,32.2,15.8,32.6"/>
	<path class="st15" d="M13.4,31.8c-0.1,0-0.3,0-0.2-0.3c0-0.1,0.3-0.6,0.6-0.9c0.2-0.2,0.3-0.1,0.3,0C14.1,30.8,13.7,31.7,13.4,31.8
		 M13.7,30.4c-0.3,0.2-0.7,0.9-0.8,1.1c0,0.1-0.1,0.4,0.3,0.5c0.4,0.1,0.6-0.2,0.7-0.3c0,0,0.6-0.7,0.5-1.1
		C14.3,30.4,14,30.3,13.7,30.4"/>
	<path class="st16" d="M13.4,31.8c-0.1,0-0.3,0-0.2-0.3c0-0.1,0.3-0.6,0.6-0.9c0.2-0.2,0.3-0.1,0.3,0C14.1,30.8,13.7,31.7,13.4,31.8
		z M13.7,30.4c-0.3,0.2-0.7,0.9-0.8,1.1c0,0.1-0.1,0.4,0.3,0.5c0.4,0.1,0.6-0.2,0.7-0.3c0,0,0.6-0.7,0.5-1.1
		C14.3,30.4,14,30.3,13.7,30.4z"/>
	<path class="st15" d="M18.8,31.9c0,0.1-0.1,0.7-0.3,0.8c-0.2,0.1-0.1-0.4,0-0.6C18.6,31.7,18.8,31.9,18.8,31.9
		C18.8,31.9,18.8,31.9,18.8,31.9 M18.6,31.8c-0.1,0-0.2,0.1-0.3,0.7c0,0.2,0,0.3,0.1,0.4c0,0,0.3,0.1,0.4-0.2
		c0.1-0.2,0.3-0.6,0.2-0.8C18.9,31.7,18.7,31.7,18.6,31.8"/>
	<path class="st15" d="M9.7,30.4l0.5,0.3l0.2-0.2l-0.2-0.1c0.4-0.4,1-1,1.4-1.5l-0.3-0.2C10.8,29.2,10.2,29.9,9.7,30.4"/>
	<path class="st17" d="M9.7,30.4l0.5,0.3l0.2-0.2l-0.2-0.1c0.4-0.4,1-1,1.4-1.5l-0.3-0.2C10.8,29.2,10.2,29.9,9.7,30.4z"/>
	<path class="st15" d="M4.8,10.4c0.7,0.2,1.5,0.5,2.2,0.7l0.2-0.4c-0.7-0.2-1.7-0.5-2.4-0.7l-0.3,0.6l0.3,0.1L4.8,10.4z"/>
	<path class="st18" d="M4.8,10.4c0.7,0.2,1.5,0.5,2.2,0.7l0.2-0.4c-0.7-0.2-1.7-0.5-2.4-0.7l-0.3,0.6l0.3,0.1L4.8,10.4z"/>
	<path class="st15" d="M3.5,13.8c0.1-0.2,0.5-0.2,0.8-0.2c1.1,0.1,1.3,0.2,1.3,0.3c0,0,0,0.1,0,0.1c0,0,0,0.1-0.1,0.1
		C5.2,14.4,3.3,14.3,3.5,13.8 M3.3,14.3c0.2,0.3,0.9,0.3,1.2,0.4C5.8,14.8,6,14.3,5.9,14c0-0.7-2-0.9-2.5-0.5
		C3.2,13.6,3.1,14,3.3,14.3"/>
	<path class="st19" d="M3.5,13.8c0.1-0.2,0.5-0.2,0.8-0.2c1.1,0.1,1.3,0.2,1.3,0.3c0,0,0,0.1,0,0.1c0,0,0,0.1-0.1,0.1
		C5.2,14.4,3.3,14.3,3.5,13.8z M3.3,14.3c0.2,0.3,0.9,0.3,1.2,0.4C5.8,14.8,6,14.3,5.9,14c0-0.7-2-0.9-2.5-0.5
		C3.2,13.6,3.1,14,3.3,14.3z"/>
	<path class="st15" d="M7.1,24c-0.7,0.3-1.7,0.8-2.4,1.2l0.3,0.6l0.3-0.1l-0.2-0.3c0.6-0.3,1.5-0.7,2.1-1L7.1,24z"/>
	<path class="st17" d="M7.1,24c-0.7,0.3-1.7,0.8-2.4,1.2l0.3,0.6l0.3-0.1l-0.2-0.3c0.6-0.3,1.5-0.7,2.1-1L7.1,24z"/>
	<path class="st15" d="M5.5,17.4c-0.8,0.1-1.9,0.1-2.7,0.2l0,0.7l0.3,0l0-0.3c0.7,0,1.7-0.1,2.5-0.2L5.5,17.4z"/>
	<path class="st20" d="M5.5,17.4c-0.8,0.1-1.9,0.1-2.7,0.2l0,0.7l0.3,0l0-0.3c0.7,0,1.7-0.1,2.5-0.2L5.5,17.4z"/>
	<path class="st15" d="M3.6,21.6c0-0.1,0.1-0.3,1.4-0.5c0.4-0.1,0.6-0.1,0.6,0.1c0,0,0,0,0,0c0,0.1-0.1,0.2-0.2,0.2
		C5.1,21.6,3.4,22.1,3.6,21.6 M6,21L6,21c-0.3-1-2.3-0.1-2.5,0.1c-0.5,0.4-0.2,1.1,0.3,1.1C4.1,22.2,6.3,22,6,21"/>
	<path class="st19" d="M3.6,21.6c0-0.1,0.1-0.3,1.4-0.5c0.4-0.1,0.6-0.1,0.6,0.1c0,0,0,0,0,0c0,0.1-0.1,0.2-0.2,0.2
		C5.1,21.6,3.4,22.1,3.6,21.6z M6,21L6,21c-0.3-1-2.3-0.1-2.5,0.1c-0.5,0.4-0.2,1.1,0.3,1.1C4.1,22.2,6.3,22,6,21z"/>
	<path class="st15" d="M9,27.1c-0.1,0.3-1.1,1-1.2,1C7.3,28.4,7.3,28,7.3,28c0-0.2,1.4-1.3,1.6-1C9,27,9,27.1,9,27.1 M9.3,27
		c-0.1-0.2-0.3-0.7-1.2-0.2c-2.1,1.3-0.6,1.7-0.6,1.7C8,28.6,9.5,27.6,9.3,27"/>
	<path class="st17" d="M9,27.1c-0.1,0.3-1.1,1-1.2,1C7.3,28.4,7.3,28,7.3,28c0-0.2,1.4-1.3,1.6-1C9,27,9,27.1,9,27.1z M9.3,27
		c-0.1-0.2-0.3-0.7-1.2-0.2c-2.1,1.3-0.6,1.7-0.6,1.7C8,28.6,9.5,27.6,9.3,27z"/>
	<path class="st15" d="M9.6,4.9l0.2-0.2c0.4,0.4,1,0.8,1.4,1.2l0.3-0.2C11,5.3,10.4,4.8,9.9,4.4L9.4,4.7L9.6,4.9z"/>
	<path class="st21" d="M9.6,4.9l0.2-0.2c0.4,0.4,1,0.8,1.4,1.2l0.3-0.2C11,5.3,10.4,4.8,9.9,4.4L9.4,4.7L9.6,4.9z"/>
	<path class="st15" d="M15.7,2c0.3-0.3,0.8,0.9,0.8,0.9c0.1,0.2,0,0.2,0,0.3c-0.1,0-0.2,0-0.4-0.2C15.7,2.4,15.6,2.1,15.7,2
		 M15.5,2.5c0.3,0.5,0.5,0.8,0.8,0.9c0,0,0.8,0.1,0.5-0.6c0,0-0.3-0.6-0.6-0.9c-0.1-0.1-0.3-0.2-0.7-0.1C15.4,1.9,15.2,2,15.5,2.5"
		/>
	<path class="st16" d="M15.7,2c0.3-0.3,0.8,0.9,0.8,0.9c0.1,0.2,0,0.2,0,0.3c-0.1,0-0.2,0-0.4-0.2C15.7,2.4,15.6,2.1,15.7,2z
		 M15.5,2.5c0.3,0.5,0.5,0.8,0.8,0.9c0,0,0.8,0.1,0.5-0.6c0,0-0.3-0.6-0.6-0.9c-0.1-0.1-0.3-0.2-0.7-0.1C15.4,1.9,15.2,2,15.5,2.5z"
		/>
	<path class="st15" d="M13.8,4c0,0,0,0.1-0.1,0.1c-0.2,0-0.3,0-0.5-0.3c-0.6-0.6-0.5-0.7-0.5-0.8c0,0,0.1-0.2,0.4,0.1
		C13.1,3.2,13.7,3.8,13.8,4C13.8,4,13.8,4,13.8,4 M12.6,2.8c-0.4,0.1-0.3,0.4-0.3,0.5c0.1,0.2,0.6,0.8,0.9,1
		c0.4,0.2,0.9-0.1,0.8-0.4C14,3.6,13.5,3,13.4,3C13.2,2.8,12.9,2.7,12.6,2.8"/>
	<path class="st16" d="M13.8,4c0,0,0,0.1-0.1,0.1c-0.2,0-0.3,0-0.5-0.3c-0.6-0.6-0.5-0.7-0.5-0.8c0,0,0.1-0.2,0.4,0.1
		C13.1,3.2,13.7,3.8,13.8,4C13.8,4,13.8,4,13.8,4z M12.6,2.8c-0.4,0.1-0.3,0.4-0.3,0.5c0.1,0.2,0.6,0.8,0.9,1
		c0.4,0.2,0.9-0.1,0.8-0.4C14,3.6,13.5,3,13.4,3C13.2,2.8,12.9,2.7,12.6,2.8z"/>
	<path class="st15" d="M8.7,7.9C8.7,7.9,8.7,7.9,8.7,7.9c0,0.1,0,0.2-0.1,0.2c-0.1,0-0.3,0.1-1.2-0.4C7.1,7.5,6.9,7.3,7,7.1
		C7.1,7,7.2,7,7.5,7.2C7.5,7.2,8.6,7.6,8.7,7.9 M7,6.8C6,7.4,7.3,8.2,8,8.4C8.8,8.6,9.1,8,9,7.8C9,7.4,7.6,6.5,7,6.8"/>
	<path class="st21" d="M8.7,7.9C8.7,7.9,8.7,7.9,8.7,7.9c0,0.1,0,0.2-0.1,0.2c-0.1,0-0.3,0.1-1.2-0.4C7.1,7.5,6.9,7.3,7,7.1
		C7.1,7,7.2,7,7.5,7.2C7.5,7.2,8.6,7.6,8.7,7.9z M7,6.8C6,7.4,7.3,8.2,8,8.4C8.8,8.6,9.1,8,9,7.8C9,7.4,7.6,6.5,7,6.8z"/>
</g>
<polygon class="st1" points="23.3,2.4 23.5,2.5 23.6,3.4 23.9,3.5 23.6,2.4 23.3,2.3 "/>
<g>
	<defs>
		<rect id="SVGID_29_" x="0.1" y="0.2" width="59.4" height="34"/>
	</defs>
	<clipPath id="SVGID_30_">
		<use xlink:href="#SVGID_29_"  style="overflow:visible;"/>
	</clipPath>
	<path class="st22" d="M18.4,1.6C18.6,2,18.8,2.5,19,2.9l0.3,0c-0.2-0.4-0.5-1-0.7-1.5l-0.5,0l0.1,0.2L18.4,1.6z"/>
	<path class="st22" d="M25.1,3.1c0-0.1,0.1,0,0.2,0.1c0.1,0.1,0.2,0.7,0,0.7c-0.1,0-0.1-0.1-0.2-0.2C25.1,3.6,25,3.2,25.1,3.1
		 M24.9,3.7C25,3.9,25.1,4,25.3,4.1c0.4,0.1,0.2-0.7,0.1-0.8c0,0,0,0,0,0c-0.1-0.2-0.3-0.3-0.5-0.2C24.7,3.1,24.9,3.7,24.9,3.7"/>
	<path class="st22" d="M21.6,2.9c-0.1,0-0.2-0.1-0.2-0.2c0,0-0.3-0.7-0.2-0.8c0,0,0.1,0,0.2,0.1C21.5,2,21.8,2.8,21.6,2.9 M21.7,2.1
		C21.7,2.1,21.7,2.1,21.7,2.1c-0.3-0.4-0.6-0.4-0.7-0.3c-0.1,0-0.2,0.1,0.1,0.8c0.1,0.1,0.2,0.4,0.5,0.4C22.3,3.2,21.7,2.1,21.7,2.1
		"/>
	<path class="st22" d="M26.5,4.6c0,0-0.1,0-0.1-0.2c0-0.1,0-0.5,0-0.5c0-0.1,0.1,0,0.2,0.1C26.6,4.1,26.6,4.6,26.5,4.6 M26.3,3.8
		c-0.1,0.1-0.1,0.5-0.1,0.6c0.1,0.2,0.3,0.3,0.4,0.3c0.2,0,0.2-0.5,0.1-0.7C26.7,4,26.5,3.7,26.3,3.8"/>
</g>
<polygon class="st1" points="27.5,4.9 27.6,4.9 27.5,5.4 27.6,5.5 27.7,4.9 27.5,4.8 "/>
<polygon class="st1" points="5.2,29.1 6.3,28.3 6.1,28.1 4.8,29 5.2,29.4 5.3,29.3 "/>
<polygon class="st1" points="2.1,9.7 2.3,9.7 2.4,9.5 3.7,9.9 3.8,9.7 2.4,9.3 "/>
<g>
	<defs>
		<rect id="SVGID_31_" x="0.1" y="0.2" width="59.4" height="34"/>
	</defs>
	<clipPath id="SVGID_32_">
		<use xlink:href="#SVGID_31_"  style="overflow:visible;"/>
	</clipPath>
	<path class="st23" d="M0.4,18.1c0-0.2,0.3-0.2,0.7-0.2c0.4-0.1,0.6,0,0.6,0.1c0,0,0,0.1,0,0.1c0,0.1-0.1,0.1-0.1,0.1
		c-0.3,0.1-1,0.2-1,0.2C0.4,18.3,0.4,18.2,0.4,18.1 M0.8,18.6c0.8,0,1.2-0.2,1.1-0.7c-0.1-0.6-1.3-0.3-1.6-0.1
		C0.1,18.1,0.1,18.7,0.8,18.6"/>
</g>
<polygon class="st1" points="0.3,15.4 0.5,15.4 0.6,15.2 2,15.3 2.1,15 0.4,14.9 "/>
<g>
	<defs>
		<rect id="SVGID_33_" x="0.1" y="0.2" width="59.4" height="34"/>
	</defs>
	<clipPath id="SVGID_34_">
		<use xlink:href="#SVGID_33_"  style="overflow:visible;"/>
	</clipPath>
	<path class="st24" d="M1.3,12.2C1.3,12,1.5,12,1.6,12c0,0,0.7,0.1,0.9,0.2c0,0,0,0.1,0,0.1c0,0,0,0.1-0.1,0.1
		c-0.1,0.1-0.5,0-0.9-0.1C1.2,12.3,1.2,12.2,1.3,12.2 M2,12.8c0.6,0,0.7-0.4,0.7-0.5c0-0.3-0.2-0.4-0.4-0.4c-0.3-0.1-0.8-0.2-1,0
		C1.2,11.9,0.5,12.7,2,12.8"/>
</g>
<polygon class="st1" points="3.3,23.8 3.2,23.6 1.6,24.2 1.8,24.6 2,24.6 1.9,24.4 "/>
<g>
	<defs>
		<rect id="SVGID_35_" x="0.1" y="0.2" width="59.4" height="34"/>
	</defs>
	<clipPath id="SVGID_36_">
		<use xlink:href="#SVGID_35_"  style="overflow:visible;"/>
	</clipPath>
	<path class="st25" d="M0.9,21.3c0-0.1,0-0.1,0.6-0.3C1.8,21,2,20.9,2.1,21c0,0,0,0.1,0,0.1c0,0.1-0.1,0.1-0.1,0.2
		C1.8,21.4,0.7,21.7,0.9,21.3 M1.1,21.8c0,0,1.4-0.1,1.2-0.8c-0.2-0.7-1.4-0.1-1.5,0C0.5,21.3,0.7,21.8,1.1,21.8"/>
	<path class="st25" d="M4.4,26.3L4.4,26.3c0,0.1-0.1,0.2-0.3,0.3c0,0-0.5,0.3-0.6,0.3c-0.3,0-0.2-0.2-0.2-0.2
		C3.3,26.5,4,26.2,4,26.2C4.2,26.1,4.3,26.1,4.4,26.3C4.4,26.2,4.4,26.3,4.4,26.3 M4.6,26.3c-0.2-0.7-1-0.2-1.3,0
		c-0.6,0.4-0.1,0.8,0.1,0.9C3.7,27.2,4.8,26.7,4.6,26.3"/>
</g>
<polygon class="st1" points="10.1,31.4 9.2,32.4 9.6,32.6 9.7,32.5 9.5,32.4 10.3,31.5 "/>
<g>
	<defs>
		<rect id="SVGID_37_" x="0.1" y="0.2" width="59.4" height="34"/>
	</defs>
	<clipPath id="SVGID_38_">
		<use xlink:href="#SVGID_37_"  style="overflow:visible;"/>
	</clipPath>
	<path class="st26" d="M8,30.2c0,0.2-0.5,0.6-0.6,0.7c-0.2,0.1-0.3,0-0.2-0.1c0-0.2,0.5-0.5,0.6-0.6C7.9,30,8,30.2,8,30.2
		C8,30.2,8,30.2,8,30.2 M7.5,30c-0.9,0.6-0.6,1-0.2,1.1C7.6,31.2,7.8,31,8,30.7c0.2-0.2,0.3-0.4,0.2-0.5C8.2,30.2,8,29.7,7.5,30"/>
	<path class="st26" d="M4,7C4,7,4.1,6.9,4.2,6.9C4.4,7,4.9,7.2,5,7.3c0,0.1,0,0.1,0,0.1c0,0,0,0-0.1,0c-0.1,0-0.2,0.1-0.6-0.1
		C4.1,7.3,3.9,7.2,4,7 M4.6,7.7c0.5,0.1,0.7-0.3,0.7-0.4C5.3,7.1,5,7,4.6,6.8C4.3,6.7,4.1,6.7,4,6.8C3.8,6.9,3.7,7.1,3.8,7.3
		C4,7.6,4.6,7.7,4.6,7.7"/>
</g>
<polygon class="st1" points="14,34.1 14.4,34.2 14.4,34.2 14.4,34.1 14.3,34.1 14.6,33.3 14.4,33.2 "/>
<g>
	<defs>
		<rect id="SVGID_39_" x="0.1" y="0.2" width="59.4" height="34"/>
	</defs>
	<clipPath id="SVGID_40_">
		<use xlink:href="#SVGID_39_"  style="overflow:visible;"/>
	</clipPath>
	<path class="st27" d="M11.9,33.4c-0.1,0-0.3,0-0.2-0.2c0.3-0.6,0.5-0.7,0.6-0.5C12.4,32.8,12.1,33.3,11.9,33.4 M12,32.5
		c-0.3,0.1-0.5,0.6-0.5,0.7c0,0.2,0,0.3,0.2,0.4c0.2,0.1,0.4,0,0.5-0.1c0,0,0.4-0.5,0.3-0.8C12.5,32.5,12.2,32.4,12,32.5"/>
	<path class="st27" d="M6,4.8c0-0.1,0.1-0.1,0.3,0c0,0,0.5,0.3,0.6,0.5c0,0,0,0.1,0,0.1c0,0,0,0-0.1,0.1c-0.1,0-0.2,0-0.5-0.2
		C6,5,5.9,4.9,6,4.8 M6.5,5.6c0.4,0.1,0.6-0.2,0.6-0.3c0-0.1,0-0.3-0.6-0.6C6.3,4.5,6.1,4.6,6,4.6C5.3,5,6.4,5.6,6.5,5.6"/>
</g>
<polygon class="st1" points="8.1,3.2 8.9,3.9 9.1,3.8 8.2,2.9 7.8,3.2 7.9,3.3 "/>
<polygon class="st1" points="10.2,1.9 10.9,2.7 11.1,2.6 10.3,1.7 10,1.9 10.1,2 "/>
<g>
	<defs>
		<rect id="SVGID_41_" x="0.1" y="0.2" width="59.4" height="34"/>
	</defs>
	<clipPath id="SVGID_42_">
		<use xlink:href="#SVGID_41_"  style="overflow:visible;"/>
	</clipPath>
	<path class="st28" d="M12.7,1.1c0.2-0.2,0.5,0.4,0.5,0.5c0,0.1,0,0.1-0.1,0.1c-0.1,0-0.1,0-0.3-0.1C12.7,1.1,12.7,1.1,12.7,1.1
		 M13,1.8c0.2,0.1,0.5,0,0.5-0.3c0-0.1-0.2-0.4-0.4-0.5c-0.2-0.1-0.4-0.1-0.4,0c-0.1,0-0.2,0.1-0.1,0.3C12.6,1.3,12.7,1.7,13,1.8"/>
</g>
<polygon class="st1" points="18.6,0.5 18.7,0.5 18.9,1.1 19.1,1.1 18.8,0.4 18.5,0.4 "/>
<g>
	<defs>
		<rect id="SVGID_43_" x="0.1" y="0.2" width="59.4" height="34"/>
	</defs>
	<clipPath id="SVGID_44_">
		<use xlink:href="#SVGID_43_"  style="overflow:visible;"/>
	</clipPath>
	<path class="st29" d="M16.7,0.4c0,0,0.1-0.1,0.3,0.1c0.1,0.1,0.2,0.3,0.2,0.4c0,0.1,0,0.1,0,0.1C16.9,1,16.7,0.4,16.7,0.4
		 M16.9,1.1c0.1,0,0.3,0,0.4-0.1c0-0.1,0-0.2-0.1-0.4c0,0,0-0.1-0.1-0.1c-0.2-0.3-0.5-0.2-0.6-0.2c-0.1,0-0.1,0.1,0,0.3
		C16.6,0.8,16.7,1,16.9,1.1"/>
</g>
<polygon class="st1" points="15.1,1.3 15.1,1.3 15.3,1.3 14.8,0.5 14.5,0.5 14.6,0.6 14.7,0.6 "/>
<g>
	<defs>
		<rect id="SVGID_45_" x="0.1" y="0.2" width="59.4" height="34"/>
	</defs>
	<clipPath id="SVGID_46_">
		<use xlink:href="#SVGID_45_"  style="overflow:visible;"/>
	</clipPath>
	<path class="st30" d="M20.3,0.7c0,0,0.1,0,0.2,0.1c0,0.1,0.1,0.3,0.1,0.3c0,0.1,0,0.1,0,0.1c0,0-0.1,0-0.2-0.1
		C20.4,1.1,20.3,0.8,20.3,0.7 M20.5,1.3c0.1,0.1,0.4,0.1,0.2-0.4c0-0.1,0-0.1-0.1-0.1c-0.1-0.1-0.3-0.2-0.4-0.2
		c-0.1,0-0.1,0.1,0,0.4C20.3,1.1,20.3,1.2,20.5,1.3"/>
</g>
<polygon class="st1" points="27,3.5 27,3.5 27,3.9 27.1,4 27.1,3.5 27,3.4 "/>
<g>
	<defs>
		<rect id="SVGID_47_" x="0.1" y="0.2" width="59.4" height="34"/>
	</defs>
	<clipPath id="SVGID_48_">
		<use xlink:href="#SVGID_47_"  style="overflow:visible;"/>
	</clipPath>
	<path class="st31" d="M26,3.2c0,0-0.1,0-0.1-0.1c0-0.1,0-0.3,0-0.3c0,0,0.1,0,0.1,0.1C26,2.9,26.1,3.2,26,3.2 M25.8,2.7
		c-0.1,0.1,0,0.3,0,0.4c0.1,0.1,0.2,0.2,0.3,0.2c0.1,0,0.1-0.3,0-0.4C26.1,2.9,25.9,2.7,25.8,2.7"/>
</g>
<polygon class="st1" points="21.8,1 21.9,1 22,1.6 22.2,1.7 22,1 21.8,0.9 "/>
<g>
	<defs>
		<rect id="SVGID_49_" x="0.1" y="0.2" width="59.4" height="34"/>
	</defs>
	<clipPath id="SVGID_50_">
		<use xlink:href="#SVGID_49_"  style="overflow:visible;"/>
	</clipPath>
	<path class="st32" d="M23.5,1.7c0,0,0.1,0,0.1,0c0,0,0.1,0.3,0,0.4c0,0-0.1,0-0.1-0.1C23.5,1.9,23.4,1.7,23.5,1.7 M23.6,2.1
		c0.3,0.1,0.1-0.3,0.1-0.3c0,0,0-0.1-0.1-0.1c-0.1-0.1-0.2-0.1-0.3-0.1c-0.1,0.1,0,0.3,0,0.3C23.4,2,23.5,2.1,23.6,2.1"/>
</g>
<polygon class="st1" points="24.6,2.1 24.7,2.2 24.7,2.6 24.9,2.7 24.8,2.2 24.6,2.1 "/>
<g>
	<defs>
		<rect id="SVGID_51_" x="0.1" y="0.2" width="59.4" height="34"/>
	</defs>
	<clipPath id="SVGID_52_">
		<use xlink:href="#SVGID_51_"  style="overflow:visible;"/>
	</clipPath>
	<path class="st33" d="M28.1,4.8C28.1,4.8,28.1,4.7,28.1,4.8c-0.1-0.1-0.1-0.3,0-0.3c0,0,0.1,0,0.1,0C28.2,4.5,28.2,4.7,28.1,4.8
		 M28,4.4C28,4.4,28,4.6,28,4.6c0,0.1,0.2,0.2,0.2,0.2c0.1,0,0.1-0.2,0.1-0.3C28.2,4.5,28.1,4.3,28,4.4"/>
</g>
<polygon class="st1" points="28.9,5.1 28.9,5.1 28.8,5.4 28.9,5.5 29,5.2 28.9,5 "/>
<polygon class="st1" points="30.3,6.7 30.4,6.8 30.3,7 30.3,7 30.4,6.8 30.3,6.7 "/>
<g>
	<defs>
		<rect id="SVGID_53_" x="0.1" y="0.2" width="59.4" height="34"/>
	</defs>
	<clipPath id="SVGID_54_">
		<use xlink:href="#SVGID_53_"  style="overflow:visible;"/>
	</clipPath>
	<path class="st34" d="M29.7,6.2C29.6,6.2,29.6,6.2,29.7,6.2c-0.1-0.1,0-0.2,0-0.3c0-0.1,0.1,0,0.1,0C29.8,6,29.7,6.2,29.7,6.2
		 M29.6,5.8c0,0-0.1,0.2-0.1,0.3c0,0.1,0.1,0.2,0.2,0.2c0.1,0,0.1-0.2,0.1-0.3C29.8,6,29.7,5.8,29.6,5.8"/>
	<path class="st34" d="M55.8,8.4c0.9,0,1.5-0.7,1.5-1.5c0-0.9-0.6-1.5-1.5-1.5c-0.9,0-1.5,0.7-1.5,1.5C54.3,7.7,54.9,8.4,55.8,8.4
		L55.8,8.4z M51.2,8.4c0.8,0,1.5-0.7,1.5-1.5c0-0.9-0.6-1.5-1.5-1.5c-0.9,0-1.5,0.7-1.5,1.5C49.7,7.7,50.4,8.4,51.2,8.4L51.2,8.4z
		 M47.3,9.3v8.3c0,4.7,2.2,6.8,5.9,6.8c3.9,0,6.2-2.2,6.2-6.8V9.3h-3.4v8.5c0,2.6-1,3.9-2.7,3.9c-1.7,0-2.7-1.3-2.7-3.9V9.3H47.3z
		 M35.7,24.2h3.4v-6h5.3v-2.7h-5.3V12h5.7V9.3h-9.1V24.2z M29.4,24.2h3.4V9.3h-3.4V24.2z M15.9,24.2h3.3v-4.9l1.3-1.6l3.7,6.4H28
		l-5.2-8.5l4.9-6.3h-4.1l-3.4,4.9c-0.4,0.5-0.7,1.1-1,1.6h0V9.3h-3.3V24.2z"/>
</g>
</svg>
